<?xml version="1.0" encoding="utf-8"?>
<!-- Generator: Adobe Illustrator 17.0.0, SVG Export Plug-In . SVG Version: 6.00 Build 0)  -->
<!DOCTYPE svg PUBLIC "-//W3C//DTD SVG 1.1//EN" "http://www.w3.org/Graphics/SVG/1.1/DTD/svg11.dtd">
<svg version="1.1" id="图层_1" xmlns="http://www.w3.org/2000/svg" xmlns:xlink="http://www.w3.org/1999/xlink" x="0px" y="0px"
	 width="309.559px" height="183.889px" viewBox="0 0 309.559 183.889" enable-background="new 0 0 309.559 183.889"
	 xml:space="preserve">
<path fill="#BC1837" d="M41.841,52.129c0.363-1.617,0.734-3.231,1.763-4.591c1.85-2.447,4.264-3.833,7.374-3.886
	c1.839-0.031,1.839-0.022,2.057-1.85c0.533-4.464,4.081-7.941,8.489-8.318c4.363-0.373,8.422,2.371,9.667,6.676
	c0.331,1.144,0.651,1.382,1.868,1.062c4.657-1.228,9.217,1.15,10.982,5.559c1.693,4.228,0.021,9.187-3.946,11.498
	c-0.765,0.446-0.774,0.668-0.275,1.389c2.132,3.078,2.489,6.383,0.706,9.728c-1.748,3.279-4.615,4.924-8.308,4.941
	c-2.179,0.01-4.167-0.754-5.82-2.227c-0.605-0.54-0.954-0.67-1.547,0.141c-2.348,3.215-6.319,4.499-10.061,3.387
	c-3.738-1.111-6.337-4.367-6.618-8.334c-0.104-1.466,0.193-2.883,0.796-4.211c0.301-0.663,0.225-0.949-0.488-1.205
	c-4.102-1.472-6.35-4.339-6.477-8.765c-0.007-0.248-0.106-0.494-0.162-0.74C41.841,52.299,41.841,52.214,41.841,52.129z
	 M75.059,42.516c-1.203,0.231-2.89,0.179-3.821,1.617c-1.288,1.991-2.413,4.089-3.568,6.163c-0.344,0.617,0.852,2.406,1.356,2.094
	c1.413-0.873,3.31-0.925,4.297-2.519c0.424-0.685,1.023-1.049,1.824-0.656c0.682,0.334,1.045,0.909,0.766,1.671
	c-0.281,0.769-0.896,1.187-1.707,0.937c-0.852-0.263-1.485,0.161-2.16,0.484c-0.609,0.292-1.171,0.691-1.792,0.949
	c-0.684,0.284-0.995,0.645-0.846,1.444c0.14,0.748,0.208,1.369,1.163,1.538c1.96,0.346,3.915,0.744,5.847,1.224
	c0.994,0.247,1.827,0.041,2.673-0.418c3.043-1.652,4.573-5.229,3.707-8.695C81.952,44.958,78.816,42.501,75.059,42.516z
	 M43.631,53.168c-0.08,2.344,0.907,4.347,2.801,5.872c1.394,1.122,3,1.973,4.82,1.288c2.102-0.791,4.125-1.795,6.162-2.749
	c0.805-0.377,0.861-2.29,0.029-2.517c-1.587-0.433-3.163-1.308-4.909-0.611c-0.793,0.316-1.439,0.098-1.822-0.663
	c-0.377-0.75-0.152-1.447,0.482-1.924c0.699-0.526,1.416-0.345,1.873,0.357c0.394,0.605,0.911,0.823,1.571,0.93
	c0.753,0.122,1.497,0.301,2.239,0.48c0.673,0.162,1.282,0.383,1.692-0.519c0.393-0.864,0.699-1.534-0.177-2.364
	c-1.323-1.252-2.555-2.613-3.716-4.018c-0.839-1.016-1.851-1.399-3.104-1.432C47.006,45.179,43.621,48.468,43.631,53.168z
	 M49.803,66.294c0,3.596,1.858,6.37,4.74,7.559c2.817,1.162,6.214,0.477,8.35-1.706c0.752-0.768,1.536-1.646,1.475-2.736
	c-0.136-2.409-0.472-4.806-0.738-7.207c-0.068-0.614-0.498-0.821-1.061-0.893c-0.486-0.062-1.075-0.437-1.374,0.177
	c-0.741,1.522-2.184,2.745-1.976,4.686c0.071,0.666-0.331,1.139-1.001,1.278c-0.694,0.144-1.28-0.072-1.591-0.742
	c-0.282-0.607-0.206-1.325,0.374-1.582c1.539-0.68,1.904-2.196,2.675-3.422c0.395-0.628,0.832-1.201,0.043-2.004
	c-0.737-0.749-1.306-0.824-2.195-0.36c-1.352,0.705-2.725,1.424-4.169,1.889C50.578,62.126,49.966,64.278,49.803,66.294z
	 M79.995,65.176c0-0.255,0.039-0.516-0.006-0.762c-0.377-2.085-0.844-4.289-3.076-5.053c-2.229-0.763-4.616-1.079-6.946-1.524
	c-0.801-0.153-2.137,1.486-1.661,2.024c1.116,1.262,1.81,3.014,3.703,3.469c0.726,0.174,1.026,0.712,0.971,1.438
	c-0.051,0.676-0.427,1.108-1.09,1.225c-0.721,0.127-1.441-0.191-1.497-0.856c-0.153-1.824-1.642-2.673-2.582-3.921
	c-0.404-0.537-0.872-0.699-1.547-0.384c-0.656,0.306-1.029,0.662-0.936,1.439c0.253,2.103,0.479,4.209,0.693,6.316
	c0.082,0.81,0.475,1.42,1.038,1.977c2.135,2.115,5.382,2.747,8.258,1.585C78.118,71.015,79.997,68.224,79.995,65.176z
	 M62.297,35.118c-3.305,0.011-6.334,2.206-7.277,5.378c-0.464,1.562-0.787,3.2,0.423,4.604c1.441,1.671,2.945,3.288,4.438,4.913
	c0.623,0.678,2.495,0.279,2.444-0.567c-0.099-1.642,0.251-3.427-0.923-4.868c-0.537-0.66-0.629-1.3-0.04-1.935
	c0.531-0.573,1.177-0.684,1.819-0.18c0.659,0.518,0.847,1.189,0.332,1.896c-0.336,0.461-0.359,0.904-0.279,1.433
	c0.139,0.922,0.227,1.852,0.307,2.782c0.05,0.579,0.086,1.155,0.852,1.169c0.692,0.013,1.444,0.522,1.975-0.502
	c0.976-1.883,2.078-3.7,3.144-5.536c0.291-0.502,0.359-1.029,0.345-1.591C69.765,38.383,66.226,35.105,62.297,35.118z"/>
<path fill="#BC1837" d="M74.38,130.805c-3.676,10.475-11.923,14.019-22.127,14.566c-1.523,0.081-3.058-0.044-4.577,0.063
	c-1.445,0.101-2.101-0.428-2.577-1.848c-0.524-1.561,0.448-1.982,1.358-2.46c1.718-0.901,2.967-2.796,5.408-2.262
	c0.746,0.163,0.416-0.864,0.088-1.287c-0.345-0.445-0.964-0.782-0.514-1.433c0.482-0.698,0.983-0.136,1.49,0.067
	c0.413,0.165,0.997,0.24,1.225-0.155c0.307-0.531-0.214-0.943-0.576-1.265c-1.256-1.119-3.367-0.534-3.852,1.144
	c-0.831,2.874-3.634,3.313-5.684,4.607c-0.895,0.565-2.93-2.065-2.454-3.156c1.425-3.263,2.795-6.557,4.403-9.729
	c1.188-2.343,3.441-3.726,5.65-4.983c4.941-2.811,10.261-3.569,15.852-2.638c1.131,0.188,1.863,0.741,1.6,1.89
	c-0.99,4.337,0.87,6.804,4.972,7.901c0.115,0.031,0.21,0.141,0.314,0.214C74.38,130.296,74.38,130.551,74.38,130.805z
	 M33.898,183.889c0.601-0.563,1.192-1.137,1.806-1.686c4.78-4.277,8.227-9.322,9.177-15.823c0.113-0.774,0.165-1.514-0.206-2.232
	c-1.371-2.655-2.75-5.306-4.105-7.97c-0.831-1.633-2.141-0.461-3.221-0.55c-0.815-0.067-1.806,0.001-1.938,1.09
	c-0.288,2.369-1.72,4.664-0.217,7.169c0.583,0.972,0.15,2.167-0.953,2.79c-1.05,0.593-2.123,0.465-2.973-0.404
	c-0.872-0.89-1.089-2.189-0.153-2.903c2.232-1.702,2.037-4.213,2.602-6.486c0.151-0.608,0.442-1.366-0.337-1.681
	c-1.254-0.508-2.522-2.27-3.64-1.528c-2.513,1.666-5.333,3.366-6.77,6.042c-3.655,6.801-3.807,13.845-0.367,20.877
	c0.519,1.06,1.035,1.202,2.066,0.645c1.488-0.804,3.004-2.537,4.509-2.085c1.543,0.463,2.296,2.574,3.4,3.959
	c0.198,0.248,0.372,0.516,0.557,0.774C33.389,183.889,33.644,183.889,33.898,183.889z M47.076,147.122
	c-1.272,0.094-2.635,2.782-1.676,3.399c2,1.287,3.744,3.342,6.53,2.944c1.454-0.208,2.556,0.241,2.867,1.786
	c0.275,1.362-0.244,2.436-1.639,2.805c-1.498,0.397-2.431-0.439-2.969-1.743c-1.049-2.541-3.654-2.9-5.667-4.082
	c-0.348-0.204-0.701,0.142-1.016,0.369c-2.088,1.501-2.13,1.65-0.931,4.013c0.603,1.19,1.274,2.349,1.821,3.564
	c2.064,4.584,5.208,8.243,9.364,11.039c3.7,2.489,7.75,3.372,12.163,2.606c1.145-0.199,1.829-0.79,1.568-1.918
	c-0.89-3.839,1.154-5.528,4.471-6.373c0.244-0.062,0.464-0.212,0.706-0.285c1.013-0.307,1.19-0.992,0.954-1.933
	c-2.441-9.729-11.252-17.071-20.65-16.556C51.005,146.876,49.039,146.977,47.076,147.122z M23.064,157.079
	c1.735-1.388,3.367-2.905,5.074-4.33c0.634-0.529,0.805-1.048,0.421-1.816c-0.338-0.677-0.558-1.414-0.808-2.132
	c-0.222-0.639-0.531-1.229-1.3-1.172c-2.34,0.174-4.813-0.491-6.887,1.338c-0.964,0.85-2.188,0.708-3.095-0.244
	c-0.891-0.935-1.043-2.036-0.125-3.081c0.917-1.044,2.138-1.445,3.19-0.468c1.67,1.549,3.619,0.718,5.435,1
	c3.103,0.48,2.547-2.295,3.475-3.761c0.569-0.899,0.274-1.505-0.485-2.103c-1.248-0.982-2.512-1.957-3.654-3.054
	c-1.116-1.072-2.414-1.775-3.896-1.769c-2.431,0.01-3.982-1.025-5.117-3.149c-0.957-1.792-2.71-1.95-4.504-1.395
	c-2.003,0.62-3.314,2.176-3.139,4.026c0.105,1.109-0.387,1.479-1.191,1.834c-2.118,0.933-3.952,2.27-5.622,3.869
	c-0.951,0.91-1.183,1.818-0.208,2.771c2.78,2.717,2.911,5.458,0.259,8.35c-0.861,0.939-0.479,1.637,0.576,2.238
	c4.721,2.689,9.733,4.317,15.208,4.393C18.875,158.307,21.182,158.585,23.064,157.079z M18.951,122.371
	c0.23,7.722,4.487,12.997,10.511,17.152c1.325,0.914,1.934-0.807,2.967-1.084c0.665-0.178,1.103-0.7,0.835-1.461
	c-0.789-2.244-0.379-4.945-2.833-6.564c-1.066-0.703-0.979-2.047-0.254-3.094c0.641-0.925,1.625-1.257,2.693-0.772
	c1.062,0.482,2.068,1.507,1.487,2.521c-1.349,2.352-0.106,4.403,0.21,6.591c0.356,2.459,2.407,1.515,3.739,1.971
	c1.224,0.419,1.676-0.526,2.082-1.428c1.25-2.781,2.507-5.56,3.745-8.346c0.256-0.575,0.57-1.163,0.435-1.826
	c-1.498-7.38-4.938-13.294-12.26-16.307c-1.116-0.459-2.071-0.441-2.502,0.783c-1.279,3.629-3.827,4.23-7.148,3.165
	c-0.06-0.019-0.126-0.02-0.187-0.035c-1.516-0.361-2.424,0.158-2.736,1.749c-0.392,1.996-0.799,3.985-0.785,6.031
	C18.949,121.735,18.941,122.053,18.951,122.371z M36.587,139.097c-4.229,0.002-7.635,3.317-7.631,7.428
	c0.004,4.085,3.43,7.576,7.5,7.641c4.12,0.066,7.71-3.468,7.731-7.612C44.208,142.447,40.792,139.095,36.587,139.097z"/>
<path fill="#BC1837" d="M172.431,79.488c-5.014,5.225-10.867,5.099-17.073,2.664c-0.926-0.363-1.803-0.852-2.734-1.2
	c-0.885-0.331-1.131-0.822-1.03-1.794c0.111-1.068,0.802-1.055,1.471-1.093c1.263-0.07,2.517-0.858,3.822,0.12
	c0.399,0.299,0.48-0.4,0.4-0.74c-0.085-0.358-0.361-0.725,0.082-0.99c0.475-0.284,0.62,0.185,0.867,0.442
	c0.201,0.21,0.527,0.412,0.769,0.239c0.326-0.232,0.128-0.617,0-0.907c-0.443-1.004-1.854-1.227-2.596-0.362
	c-1.27,1.481-3.053,0.984-4.62,1.198c-0.684,0.093-1.181-2.018-0.603-2.537c1.728-1.552,3.432-3.137,5.244-4.585
	c1.339-1.07,3.05-1.282,4.701-1.43c3.693-0.333,7.056,0.655,10.123,2.719c0.621,0.418,0.905,0.944,0.439,1.555
	c-1.76,2.307-1.323,4.274,0.816,6.034c0.06,0.049,0.086,0.14,0.128,0.212C172.568,79.186,172.499,79.337,172.431,79.488z
	 M134.049,100.056c0.509-0.171,1.015-0.352,1.528-0.512c3.994-1.247,7.403-3.31,9.725-6.912c0.276-0.429,0.507-0.854,0.481-1.381
	c-0.096-1.947-0.198-3.893-0.283-5.841c-0.052-1.194-1.146-0.852-1.763-1.197c-0.465-0.26-1.072-0.488-1.445,0.123
	c-0.811,1.328-2.282,2.303-2.067,4.197c0.083,0.735-0.497,1.327-1.32,1.399c-0.784,0.068-1.386-0.298-1.656-1.044
	c-0.277-0.764-0.054-1.594,0.694-1.764c1.785-0.407,2.348-1.951,3.298-3.147c0.254-0.32,0.632-0.691,0.254-1.089
	c-0.607-0.641-0.883-2.029-1.748-1.891c-1.942,0.31-4.076,0.557-5.652,1.756c-4.008,3.049-6.002,7.189-5.862,12.294
	c0.021,0.77,0.29,0.994,1.052,0.942c1.101-0.075,2.469-0.694,3.241-0.019c0.791,0.692,0.667,2.148,0.948,3.269
	c0.05,0.201,0.081,0.407,0.121,0.61C133.747,99.918,133.898,99.987,134.049,100.056z M151.812,81.793
	c-0.78-0.288-2.317,0.939-1.914,1.565c0.84,1.305,1.319,2.996,3.08,3.513c0.919,0.27,1.452,0.834,1.219,1.835
	c-0.205,0.883-0.803,1.38-1.731,1.222c-0.996-0.169-1.324-0.918-1.291-1.837c0.065-1.792-1.385-2.709-2.26-3.955
	c-0.151-0.215-0.454-0.105-0.703-0.056c-1.645,0.326-1.71,0.404-1.638,2.131c0.036,0.87,0.121,1.739,0.118,2.608
	c-0.014,3.279,0.863,6.301,2.574,9.084c1.523,2.478,3.689,4.097,6.516,4.835c0.733,0.192,1.299,0.025,1.449-0.715
	c0.51-2.519,2.18-2.969,4.377-2.575c0.161,0.029,0.333,0,0.496,0.021c0.684,0.091,0.974-0.267,1.089-0.89
	c1.181-6.435-2.064-13.176-7.782-15.411C154.211,82.709,153.016,82.238,151.812,81.793z M134.866,81.212
	c1.405-0.355,2.784-0.814,4.182-1.198c0.519-0.143,0.761-0.405,0.741-0.964c-0.018-0.493,0.051-0.99,0.097-1.484
	c0.041-0.439,0.017-0.873-0.455-1.047c-1.436-0.529-2.724-1.593-4.45-1.067c-0.802,0.244-1.49-0.171-1.771-0.982
	c-0.276-0.796-0.069-1.491,0.759-1.863c0.827-0.372,1.66-0.28,2.02,0.584c0.572,1.371,1.954,1.405,2.956,2.063
	c1.712,1.124,2.132-0.674,3.08-1.293c0.581-0.38,0.57-0.819,0.281-1.379c-0.475-0.92-0.962-1.84-1.344-2.801
	c-0.373-0.938-0.953-1.706-1.834-2.103c-1.446-0.651-2.087-1.685-2.186-3.252c-0.084-1.323-1.081-1.89-2.296-2.045
	c-1.357-0.173-2.556,0.396-2.952,1.541c-0.237,0.687-0.63,0.774-1.203,0.766c-1.51-0.019-2.96,0.279-4.384,0.777
	c-0.81,0.283-1.194,0.759-0.872,1.589c0.916,2.364,0.253,4.027-2.103,5.027c-0.765,0.325-0.727,0.842-0.263,1.484
	c2.076,2.872,4.611,5.194,7.84,6.719C132.048,80.809,133.342,81.597,134.866,81.212z M141.808,59.497
	c-1.951,4.646-0.85,8.928,1.603,13.023c0.539,0.901,1.366,0.044,2.054,0.159c0.443,0.074,0.844-0.117,0.891-0.641
	c0.138-1.545,1.112-3.038,0.093-4.662c-0.443-0.705-0.028-1.48,0.686-1.905c0.63-0.376,1.305-0.306,1.807,0.27
	c0.5,0.573,0.821,1.454,0.201,1.898c-1.437,1.031-1.253,2.585-1.657,3.969c-0.454,1.556,1.019,1.55,1.687,2.181
	c0.614,0.58,1.137,0.141,1.622-0.285c1.494-1.313,2.991-2.622,4.479-3.942c0.307-0.272,0.653-0.536,0.752-0.966
	c1.106-4.786,0.663-9.226-2.869-12.995c-0.538-0.574-1.11-0.822-1.697-0.211c-1.74,1.808-3.415,1.476-5.099-0.053
	c-0.03-0.028-0.069-0.046-0.102-0.071c-0.802-0.624-1.481-0.562-2.097,0.298c-0.772,1.079-1.552,2.15-2.096,3.368
	C141.979,59.119,141.888,59.306,141.808,59.497z M147.755,74.194c-2.511-1.142-5.429-0.095-6.538,2.346
	c-1.102,2.426-0.012,5.424,2.387,6.563c2.428,1.153,5.514,0.026,6.647-2.428C151.373,78.243,150.252,75.329,147.755,74.194z"/>
<path fill="#BC1837" d="M222.4,66.379c2.721,5.212,1.107,9.683-2.374,13.826c-0.519,0.618-1.123,1.167-1.632,1.793
	c-0.484,0.595-0.926,0.657-1.647,0.328c-0.793-0.362-0.604-0.89-0.46-1.415c0.273-0.99-0.007-2.159,1.082-2.909
	c0.333-0.229-0.184-0.473-0.466-0.5c-0.297-0.028-0.651,0.09-0.74-0.32c-0.096-0.439,0.303-0.429,0.565-0.552
	c0.213-0.1,0.453-0.299,0.383-0.53c-0.094-0.311-0.442-0.258-0.697-0.235c-0.887,0.081-1.425,1.109-0.951,1.904
	c0.811,1.361-0.034,2.604-0.275,3.865c-0.105,0.55-1.859,0.386-2.108-0.193c-0.746-1.731-1.524-3.453-2.169-5.223
	c-0.476-1.307-0.196-2.679,0.118-3.988c0.701-2.928,2.332-5.259,4.716-7.084c0.482-0.369,0.961-0.452,1.31,0.065
	c1.319,1.952,2.946,2.126,4.854,0.936c0.054-0.033,0.13-0.03,0.196-0.044C222.203,66.195,222.301,66.287,222.4,66.379z
	 M228.279,101.24c0-0.436-0.008-0.872,0.002-1.308c0.076-3.396-0.628-6.554-2.798-9.274c-0.258-0.324-0.526-0.612-0.938-0.728
	c-1.523-0.431-3.047-0.857-4.567-1.296c-0.932-0.27-0.953,0.661-1.378,1.047c-0.321,0.291-0.653,0.698-0.28,1.144
	c0.812,0.968,1.181,2.353,2.694,2.678c0.587,0.126,0.892,0.726,0.734,1.378c-0.151,0.621-0.588,0.989-1.232,1.004
	c-0.66,0.015-1.24-0.371-1.178-0.991c0.15-1.479-0.892-2.312-1.567-3.353c-0.18-0.279-0.368-0.665-0.772-0.478
	c-0.65,0.301-1.79,0.154-1.908,0.855c-0.265,1.575-0.628,3.28-0.113,4.804c1.308,3.874,3.976,6.481,7.94,7.696
	c0.598,0.183,0.84,0.035,0.997-0.565c0.228-0.867,0.106-2.08,0.825-2.498c0.737-0.429,1.826,0.043,2.761,0.118
	c0.168,0.013,0.334,0.043,0.501,0.065C228.095,101.437,228.187,101.338,228.279,101.24z M218.83,82.841
	c-0.424,0.526,0.122,2.026,0.708,1.878c1.221-0.308,2.647-0.239,3.501-1.46c0.446-0.637,1.018-0.901,1.728-0.463
	c0.626,0.387,0.853,0.976,0.492,1.649c-0.388,0.723-1.049,0.781-1.748,0.518c-1.362-0.514-2.443,0.364-3.629,0.714
	c-0.205,0.061-0.198,0.322-0.225,0.526c-0.175,1.351-0.133,1.42,1.215,1.812c0.678,0.197,1.369,0.357,2.037,0.585
	c2.519,0.86,5.072,0.969,7.657,0.374c2.301-0.53,4.108-1.777,5.409-3.761c0.337-0.514,0.356-0.993-0.174-1.3
	c-1.806-1.045-1.72-2.447-0.847-4.035c0.064-0.117,0.086-0.256,0.145-0.376c0.248-0.503,0.047-0.819-0.403-1.068
	c-4.645-2.576-10.672-1.826-13.874,1.994C220.157,81.232,219.484,82.029,218.83,82.841z M213.992,95.728
	c0.091-1.173,0.095-2.353,0.162-3.528c0.025-0.437-0.114-0.69-0.55-0.82c-0.384-0.114-0.749-0.296-1.117-0.459
	c-0.327-0.146-0.667-0.24-0.924,0.079c-0.779,0.968-1.931,1.684-1.975,3.148c-0.02,0.68-0.518,1.102-1.215,1.109
	c-0.684,0.006-1.165-0.333-1.237-1.066c-0.072-0.732,0.215-1.349,0.973-1.403c1.203-0.085,1.587-1.139,2.353-1.74
	c1.309-1.026,0.034-1.815-0.197-2.705c-0.142-0.546-0.483-0.651-0.989-0.573c-0.831,0.127-1.665,0.263-2.503,0.308
	c-0.818,0.044-1.56,0.291-2.093,0.866c-0.876,0.944-1.837,1.169-3.069,0.839c-1.039-0.278-1.735,0.342-2.169,1.237
	c-0.485,0.999-0.358,2.069,0.421,2.67c0.467,0.361,0.432,0.685,0.278,1.124c-0.406,1.157-0.552,2.35-0.538,3.574
	c0.008,0.697,0.275,1.115,0.996,1.083c2.056-0.092,3.164,0.849,3.323,2.921c0.052,0.673,0.46,0.778,1.074,0.587
	c2.748-0.853,5.191-2.202,7.201-4.291C212.951,97.792,213.894,97.001,213.992,95.728z M199.083,84.76
	c3.069,2.705,6.649,2.968,10.436,2.142c0.833-0.182,0.388-1.04,0.654-1.539c0.172-0.321,0.129-0.68-0.263-0.852
	c-1.153-0.507-2.049-1.643-3.563-1.279c-0.657,0.158-1.146-0.362-1.288-1.021c-0.126-0.582,0.102-1.083,0.676-1.321
	c0.571-0.236,1.331-0.255,1.513,0.337c0.421,1.373,1.664,1.634,2.625,2.303c1.079,0.752,1.457-0.382,2.115-0.733
	c0.605-0.322,0.403-0.838,0.201-1.322c-0.623-1.49-1.243-2.981-1.872-4.468c-0.13-0.307-0.244-0.641-0.549-0.829
	c-3.396-2.091-6.927-2.901-10.742-1.159c-0.581,0.265-0.92,0.641-0.602,1.251c0.941,1.807,0.251,3.01-1.362,3.909
	c-0.029,0.016-0.053,0.041-0.081,0.06c-0.688,0.455-0.816,0.994-0.314,1.691c0.63,0.874,1.252,1.751,2.048,2.486
	C198.836,84.531,198.956,84.649,199.083,84.76z M211.932,83.993c-1.529,1.636-1.48,4.153,0.111,5.639
	c1.581,1.477,4.17,1.415,5.668-0.136c1.516-1.569,1.449-4.236-0.146-5.743C215.985,82.258,213.453,82.366,211.932,83.993z"/>
<path fill="#BC1837" d="M254.082,5.943c1.94-1.571,3.886-3.132,6.374-3.779c4.473-1.163,8.62-0.545,12.345,2.298
	c2.202,1.681,2.194,1.692,4.159-0.264c4.802-4.778,12.243-5.571,17.804-1.898c5.504,3.635,7.737,10.672,5.186,16.922
	c-0.678,1.662-0.522,2.242,1.215,3c6.651,2.9,9.818,9.971,7.784,16.831c-1.95,6.578-8.56,10.877-15.408,9.901
	c-1.32-0.188-1.539,0.066-1.622,1.384c-0.357,5.629-3.023,9.869-8.256,12.156c-5.13,2.242-10.055,1.507-14.435-1.923
	c-2.584-2.024-4.22-4.784-4.797-8.07c-0.211-1.203-0.501-1.684-1.96-1.279c-5.778,1.605-11.671-0.587-15.054-5.398
	c-3.38-4.806-3.409-11.082-0.034-16.033c1.247-1.829,2.922-3.227,4.876-4.232c0.975-0.502,1.153-0.911,0.549-1.879
	c-3.473-5.572-3.449-11.061,0.536-16.411c0.223-0.3,0.336-0.682,0.5-1.026C253.923,6.144,254.003,6.043,254.082,5.943z
	 M302.321,25.621c-1.637-0.851-3.583-2.489-6.026-1.66c-3.383,1.149-6.672,2.577-9.976,3.949c-0.983,0.408-1.241,3.639-0.353,3.742
	c2.486,0.289,4.776,2,7.432,1.038c1.142-0.414,2.189-0.284,2.769,0.93c0.493,1.032,0.385,2.051-0.656,2.691
	c-1.051,0.646-2.168,0.566-2.892-0.487c-0.762-1.107-1.905-1.196-3.005-1.445c-0.993-0.225-2.029-0.278-3.004-0.553
	c-1.074-0.303-1.779-0.168-2.349,0.916c-0.534,1.015-1.034,1.812-0.062,2.904c1.993,2.241,3.932,4.538,5.766,6.91
	c0.944,1.221,2.121,1.756,3.549,2.004c5.14,0.892,10.29-1.907,12.505-6.812C308.185,34.947,306.775,29.114,302.321,25.621z
	 M255.227,8.843c-2.285,2.695-2.989,5.984-2.176,9.556c0.598,2.628,1.702,5.134,4.492,6.026c3.223,1.03,6.552,1.733,9.851,2.509
	c1.304,0.306,3.157-1.902,2.386-2.948c-1.471-1.995-2.517-4.501-5.231-5.308c-1.232-0.367-1.792-1.228-1.533-2.486
	c0.255-1.239,1.172-1.851,2.367-1.823c1.318,0.032,1.996,0.916,1.88,2.173c-0.1,1.083,0.308,1.824,0.987,2.567
	c0.775,0.848,1.488,1.755,2.198,2.66c0.644,0.821,1.158,1.651,2.485,0.968c1.271-0.654,2.26-1.16,1.999-2.959
	c-0.393-2.716-0.578-5.475-0.636-8.221c-0.042-1.985-0.88-3.383-2.33-4.593C266.68,2.555,259.607,3.279,255.227,8.843z
	 M250.256,30.122c-3.361,4.25-3.757,9.264-1.462,13.362c2.243,4.006,6.898,6.37,11.462,5.786c1.606-0.206,3.354-0.51,4.299-1.855
	c2.09-2.974,3.933-6.121,5.861-9.207c0.493-0.789,0.179-1.435-0.419-2.047c-0.516-0.527-0.863-1.521-1.789-1.075
	c-2.298,1.106-5.146,1.204-6.714,3.692c-0.538,0.854-1.455,1.037-2.377,0.575c-0.954-0.478-1.445-1.281-1.187-2.364
	c0.234-0.98,0.995-1.759,1.92-1.52c2.454,0.634,4.302-0.816,6.358-1.545c1.054-0.373,2.105-0.641,1.923-2.328
	c-0.171-1.574-0.774-2.194-2.257-2.476c-2.257-0.43-4.552-0.863-6.693-1.663C255.066,25.92,252.332,27.892,250.256,30.122z
	 M286.981,57.012c0.238-0.301,0.528-0.574,0.705-0.907c1.502-2.816,3.01-5.857,1.086-8.847c-1.921-2.984-4.447-5.588-6.784-8.291
	c-0.803-0.929-3.914-0.241-3.854,0.84c0.14,2.534-0.677,5.253,1.135,7.559c0.695,0.884,0.547,1.8-0.196,2.606
	c-0.692,0.751-1.54,0.91-2.432,0.429c-0.97-0.524-1.524-1.572-0.969-2.411c1.524-2.299,0.557-4.694,0.613-7.045
	c0.024-1.013-0.377-1.64-1.469-1.899c-1.061-0.251-1.835-0.18-2.451,0.827c-1.666,2.721-3.367,5.421-5.082,8.112
	c-0.659,1.034-0.765,2.122-0.621,3.306c0.547,4.494,3.793,8.275,8.278,9.589C279.306,62.158,284.135,60.615,286.981,57.012z
	 M294.152,4.952c-3.916-3.076-9.547-3.311-13.624-0.444c-2.008,1.412-3.921,3.047-3.802,5.837c0.141,3.321,0.408,6.637,0.654,9.953
	c0.103,1.383,2.688,2.661,3.418,1.614c1.417-2.032,3.498-3.815,3.458-6.615c-0.018-1.281,0.472-2.124,1.76-2.324
	c1.163-0.18,2.03,0.291,2.318,1.487c0.296,1.228-0.111,2.197-1.379,2.551c-0.828,0.231-1.269,0.733-1.669,1.433
	c-0.697,1.219-1.462,2.401-2.236,3.574c-0.482,0.73-0.978,1.444-0.086,2.178c0.805,0.662,1.219,1.967,2.804,1.252
	c2.913-1.313,5.914-2.431,8.888-3.605c0.814-0.321,1.386-0.881,1.894-1.558C299.926,15.789,298.807,8.609,294.152,4.952z"/>
<g>
</g>
<g>
</g>
<g>
</g>
<g>
</g>
<g>
</g>
<g>
</g>
</svg>
