<?xml version="1.0" encoding="utf-8"?>
<!-- Generator: Adobe Illustrator 17.0.0, SVG Export Plug-In . SVG Version: 6.00 Build 0)  -->
<!DOCTYPE svg PUBLIC "-//W3C//DTD SVG 1.1//EN" "http://www.w3.org/Graphics/SVG/1.1/DTD/svg11.dtd">
<svg version="1.1" id="图层_1" xmlns="http://www.w3.org/2000/svg" xmlns:xlink="http://www.w3.org/1999/xlink" x="0px" y="0px"
	 width="517.725px" height="206.273px" viewBox="0 0 517.725 206.273" enable-background="new 0 0 517.725 206.273"
	 xml:space="preserve">
<path opacity="0.2" fill="#BC1837" d="M436.945,18.317c-3.152,8.983-10.225,12.023-18.976,12.491
	c-1.306,0.07-2.622-0.037-3.925,0.054c-1.239,0.087-1.801-0.367-2.21-1.585c-0.449-1.338,0.384-1.7,1.165-2.109
	c1.473-0.773,2.545-2.398,4.638-1.939c0.639,0.14,0.357-0.741,0.076-1.103c-0.296-0.382-0.826-0.671-0.441-1.229
	c0.413-0.598,0.843-0.117,1.278,0.057c0.354,0.141,0.855,0.205,1.051-0.133c0.263-0.456-0.183-0.809-0.494-1.085
	c-1.077-0.96-2.887-0.458-3.303,0.981c-0.713,2.465-3.116,2.841-4.875,3.951c-0.768,0.484-2.513-1.771-2.104-2.706
	c1.222-2.798,2.397-5.623,3.776-8.343c1.019-2.01,2.951-3.195,4.845-4.273c4.238-2.411,8.799-3.061,13.594-2.262
	c0.97,0.162,1.597,0.636,1.372,1.621c-0.849,3.719,0.746,5.835,4.264,6.776c0.099,0.026,0.18,0.121,0.269,0.184
	C436.945,17.88,436.945,18.099,436.945,18.317z M402.229,63.841c0.516-0.482,1.023-0.975,1.549-1.446
	c4.099-3.668,7.055-7.994,7.87-13.57c0.097-0.663,0.141-1.299-0.177-1.914c-1.176-2.277-2.358-4.551-3.521-6.835
	c-0.713-1.401-1.836-0.395-2.762-0.471c-0.699-0.057-1.548,0.001-1.662,0.935c-0.247,2.032-1.475,4-0.186,6.148
	c0.5,0.834,0.129,1.859-0.817,2.393c-0.9,0.509-1.82,0.398-2.55-0.346c-0.748-0.764-0.934-1.877-0.131-2.489
	c1.914-1.46,1.746-3.613,2.231-5.562c0.13-0.522,0.379-1.171-0.289-1.442c-1.076-0.436-2.163-1.947-3.122-1.31
	c-2.155,1.429-4.573,2.887-5.806,5.182c-3.134,5.833-3.264,11.873-0.314,17.904c0.445,0.909,0.888,1.031,1.772,0.553
	c1.276-0.69,2.577-2.176,3.867-1.788c1.323,0.397,1.969,2.207,2.915,3.395c0.17,0.213,0.319,0.442,0.478,0.664
	C401.792,63.841,402.01,63.841,402.229,63.841z M413.53,32.31c-1.091,0.081-2.26,2.386-1.437,2.915
	c1.716,1.104,3.211,2.866,5.6,2.525c1.247-0.178,2.192,0.207,2.459,1.531c0.236,1.168-0.21,2.089-1.406,2.406
	c-1.284,0.341-2.085-0.376-2.546-1.495c-0.899-2.179-3.134-2.487-4.86-3.501c-0.298-0.175-0.601,0.122-0.871,0.316
	c-1.791,1.287-1.826,1.415-0.799,3.442c0.517,1.021,1.093,2.014,1.562,3.056c1.77,3.931,4.466,7.069,8.03,9.467
	c3.173,2.135,6.646,2.891,10.431,2.235c0.982-0.17,1.569-0.678,1.344-1.645c-0.763-3.292,0.99-4.741,3.834-5.465
	c0.209-0.053,0.398-0.182,0.605-0.245c0.869-0.263,1.02-0.851,0.818-1.658c-2.093-8.343-9.65-14.64-17.709-14.199
	C416.899,32.099,415.213,32.186,413.53,32.31z M392.937,40.849c1.488-1.191,2.888-2.491,4.351-3.713
	c0.544-0.454,0.69-0.899,0.361-1.557c-0.29-0.58-0.479-1.212-0.693-1.829c-0.19-0.548-0.455-1.054-1.115-1.005
	c-2.007,0.149-4.128-0.421-5.907,1.148c-0.827,0.729-1.876,0.607-2.655-0.21c-0.764-0.802-0.895-1.746-0.107-2.642
	c0.787-0.895,1.833-1.239,2.735-0.402c1.432,1.329,3.104,0.616,4.661,0.857c2.661,0.412,2.184-1.968,2.98-3.226
	c0.488-0.771,0.235-1.291-0.416-1.803c-1.07-0.842-2.154-1.678-3.134-2.619c-0.957-0.919-2.07-1.522-3.341-1.517
	c-2.085,0.009-3.415-0.879-4.388-2.7c-0.821-1.537-2.324-1.672-3.862-1.196c-1.718,0.532-2.842,1.866-2.692,3.453
	c0.09,0.951-0.332,1.269-1.022,1.573c-1.817,0.8-3.389,1.947-4.822,3.318c-0.815,0.781-1.014,1.559-0.178,2.376
	c2.384,2.33,2.497,4.681,0.223,7.161c-0.738,0.805-0.411,1.404,0.494,1.919c4.049,2.306,8.347,3.702,13.042,3.767
	C389.345,41.902,391.324,42.141,392.937,40.849z M389.41,11.084c0.197,6.622,3.848,11.146,9.014,14.709
	c1.136,0.784,1.658-0.692,2.544-0.93c0.57-0.153,0.946-0.6,0.716-1.253c-0.676-1.924-0.325-4.241-2.43-5.629
	c-0.914-0.603-0.84-1.755-0.218-2.653c0.549-0.793,1.394-1.078,2.31-0.662c0.911,0.413,1.774,1.292,1.275,2.162
	c-1.157,2.017-0.091,3.776,0.18,5.652c0.305,2.108,2.064,1.299,3.206,1.69c1.05,0.359,1.438-0.451,1.785-1.225
	c1.072-2.385,2.15-4.768,3.212-7.158c0.219-0.493,0.488-0.997,0.373-1.566c-1.284-6.329-4.234-11.401-10.514-13.985
	c-0.957-0.394-1.776-0.378-2.146,0.672c-1.097,3.112-3.282,3.627-6.13,2.715c-0.051-0.016-0.108-0.017-0.161-0.03
	c-1.3-0.31-2.078,0.135-2.346,1.5c-0.336,1.712-0.685,3.418-0.673,5.172C389.409,10.539,389.402,10.811,389.41,11.084z
	 M404.535,25.428c-3.627,0.002-6.548,2.845-6.544,6.37c0.003,3.504,2.942,6.497,6.432,6.552c3.534,0.056,6.612-2.974,6.63-6.528
	C411.07,28.301,408.141,25.426,404.535,25.428z"/>
<path opacity="0.2" fill="#BC1837" d="M386.737,108.055c1.314-1.065,2.633-2.122,4.319-2.56c3.031-0.788,5.841-0.369,8.365,1.557
	c1.492,1.139,1.487,1.146,2.818-0.179c3.254-3.237,8.296-3.775,12.064-1.286c3.73,2.463,5.243,7.231,3.514,11.467
	c-0.46,1.126-0.354,1.519,0.823,2.033c4.506,1.965,6.652,6.757,5.275,11.405c-1.321,4.457-5.8,7.37-10.44,6.709
	c-0.895-0.127-1.043,0.045-1.099,0.938c-0.242,3.814-2.049,6.687-5.594,8.237c-3.476,1.519-6.813,1.021-9.781-1.303
	c-1.751-1.371-2.859-3.242-3.25-5.468c-0.143-0.815-0.34-1.141-1.328-0.866c-3.915,1.088-7.909-0.398-10.201-3.658
	c-2.29-3.257-2.31-7.509-0.023-10.864c0.845-1.24,1.98-2.187,3.304-2.868c0.661-0.34,0.781-0.618,0.372-1.274
	c-2.353-3.776-2.337-7.495,0.363-11.12c0.151-0.203,0.228-0.462,0.339-0.695C386.63,108.191,386.684,108.123,386.737,108.055z
	 M419.423,121.388c-1.109-0.577-2.428-1.687-4.083-1.125c-2.292,0.778-4.521,1.746-6.759,2.676c-0.666,0.277-0.841,2.466-0.24,2.536
	c1.684,0.196,3.236,1.355,5.036,0.703c0.773-0.28,1.483-0.192,1.876,0.63c0.334,0.699,0.261,1.39-0.445,1.823
	c-0.712,0.438-1.469,0.383-1.96-0.33c-0.516-0.75-1.291-0.811-2.036-0.979c-0.673-0.152-1.375-0.188-2.036-0.375
	c-0.728-0.206-1.205-0.114-1.592,0.621c-0.362,0.688-0.701,1.228-0.042,1.968c1.351,1.518,2.664,3.075,3.907,4.682
	c0.64,0.827,1.437,1.19,2.405,1.358c3.483,0.604,6.972-1.292,8.473-4.616C423.397,127.708,422.441,123.755,419.423,121.388z
	 M387.513,110.02c-1.548,1.826-2.026,4.055-1.475,6.475c0.405,1.781,1.153,3.479,3.044,4.083c2.184,0.698,4.44,1.174,6.675,1.7
	c0.883,0.208,2.139-1.289,1.617-1.998c-0.997-1.352-1.705-3.05-3.544-3.597c-0.835-0.248-1.214-0.832-1.039-1.684
	c0.173-0.84,0.794-1.254,1.604-1.235c0.893,0.021,1.352,0.621,1.274,1.472c-0.067,0.734,0.209,1.236,0.669,1.739
	c0.525,0.575,1.008,1.189,1.489,1.802c0.436,0.556,0.785,1.119,1.684,0.656c0.861-0.443,1.531-0.786,1.355-2.005
	c-0.266-1.84-0.392-3.71-0.431-5.57c-0.028-1.345-0.596-2.292-1.579-3.112C395.274,105.759,390.481,106.249,387.513,110.02z
	 M384.145,124.438c-2.277,2.879-2.546,6.277-0.991,9.054c1.52,2.714,4.674,4.316,7.766,3.921c1.088-0.139,2.273-0.346,2.913-1.257
	c1.416-2.015,2.665-4.147,3.972-6.238c0.334-0.535,0.122-0.973-0.284-1.387c-0.35-0.357-0.585-1.03-1.212-0.728
	c-1.557,0.749-3.487,0.816-4.549,2.502c-0.365,0.579-0.986,0.703-1.611,0.39c-0.647-0.324-0.979-0.868-0.804-1.602
	c0.158-0.664,0.674-1.192,1.301-1.03c1.663,0.43,2.915-0.553,4.308-1.047c0.714-0.253,1.427-0.435,1.303-1.578
	c-0.116-1.067-0.524-1.486-1.53-1.678c-1.529-0.291-3.084-0.585-4.535-1.127C387.404,121.591,385.552,122.927,384.145,124.438z
	 M409.029,142.659c0.161-0.204,0.358-0.389,0.478-0.614c1.018-1.908,2.04-3.969,0.736-5.994c-1.302-2.022-3.013-3.786-4.597-5.618
	c-0.544-0.629-2.652-0.163-2.611,0.569c0.095,1.717-0.459,3.56,0.769,5.122c0.471,0.599,0.371,1.219-0.133,1.766
	c-0.469,0.509-1.044,0.617-1.648,0.29c-0.657-0.355-1.033-1.065-0.656-1.633c1.033-1.558,0.377-3.18,0.415-4.774
	c0.016-0.686-0.256-1.111-0.995-1.287c-0.719-0.17-1.243-0.122-1.661,0.56c-1.129,1.844-2.281,3.673-3.443,5.496
	c-0.447,0.701-0.519,1.438-0.421,2.24c0.371,3.045,2.57,5.607,5.609,6.498C403.829,146.146,407.101,145.1,409.029,142.659z
	 M413.888,107.383c-2.653-2.084-6.469-2.244-9.232-0.301c-1.36,0.957-2.657,2.064-2.576,3.955c0.095,2.25,0.276,4.497,0.443,6.744
	c0.07,0.937,1.821,1.803,2.316,1.093c0.96-1.377,2.37-2.585,2.343-4.482c-0.012-0.868,0.32-1.439,1.193-1.574
	c0.788-0.122,1.375,0.197,1.57,1.007c0.2,0.832-0.075,1.489-0.934,1.728c-0.561,0.156-0.86,0.497-1.131,0.971
	c-0.472,0.826-0.991,1.627-1.515,2.422c-0.327,0.495-0.662,0.979-0.058,1.476c0.546,0.449,0.826,1.333,1.9,0.849
	c1.974-0.89,4.007-1.647,6.022-2.442c0.551-0.217,0.939-0.597,1.283-1.055C417.801,114.726,417.042,109.861,413.888,107.383z"/>
<path opacity="0.2" fill="#BC1837" d="M336.561,148.492c-7.666,3.578-13.991,0.973-19.725-4.296
	c-0.856-0.786-1.605-1.689-2.473-2.461c-0.825-0.734-0.886-1.372-0.366-2.389c0.571-1.117,1.319-0.812,2.064-0.57
	c1.406,0.456,3.105,0.127,4.114,1.742c0.308,0.493,0.692-0.234,0.748-0.638c0.059-0.425-0.087-0.942,0.507-1.044
	c0.637-0.109,0.598,0.463,0.758,0.848c0.13,0.313,0.401,0.671,0.737,0.585c0.453-0.116,0.4-0.619,0.383-0.988
	c-0.059-1.281-1.503-2.119-2.676-1.489c-2.009,1.078-3.741-0.215-5.539-0.642c-0.785-0.187-0.436-2.697,0.412-3.018
	c2.537-0.962,5.061-1.971,7.647-2.784c1.91-0.601,3.863-0.111,5.725,0.424c4.164,1.195,7.411,3.689,9.883,7.231
	c0.5,0.717,0.588,1.41-0.177,1.879c-2.891,1.771-3.244,4.099-1.656,6.919c0.045,0.079,0.035,0.189,0.05,0.285
	C336.839,148.221,336.7,148.357,336.561,148.492z M286.07,154.719c0.627,0.028,1.255,0.044,1.881,0.086
	c4.877,0.325,9.462-0.484,13.511-3.431c0.482-0.351,0.913-0.717,1.106-1.301c0.716-2.162,1.426-4.326,2.155-6.483
	c0.447-1.323-0.89-1.412-1.417-2.048c-0.398-0.479-0.962-0.983-1.627-0.475c-1.444,1.105-3.457,1.548-4.022,3.702
	c-0.219,0.836-1.101,1.237-2.028,0.968c-0.883-0.256-1.384-0.909-1.364-1.835c0.021-0.949,0.613-1.76,1.5-1.63
	c2.117,0.309,3.381-1.135,4.92-2.038c0.412-0.242,0.98-0.487,0.737-1.08c-0.392-0.954-0.107-2.583-1.107-2.798
	c-2.247-0.481-4.675-1.112-6.899-0.47c-5.653,1.633-9.571,5.302-11.57,10.924c-0.301,0.848-0.103,1.205,0.749,1.469
	c1.231,0.382,2.983,0.285,3.539,1.346c0.57,1.087-0.179,2.622-0.346,3.962c-0.03,0.24-0.083,0.477-0.125,0.716
	C285.799,154.441,285.934,154.58,286.07,154.719z M313.124,142.31c-0.729-0.643-2.92,0.046-2.745,0.898
	c0.365,1.776,0.174,3.821,1.875,5.126c0.888,0.682,1.23,1.521,0.555,2.513c-0.596,0.875-1.457,1.165-2.402,0.602
	c-1.014-0.604-1.056-1.558-0.632-2.546c0.826-1.925-0.367-3.536-0.795-5.262c-0.074-0.298-0.451-0.306-0.742-0.357
	c-1.93-0.338-2.034-0.281-2.683,1.631c-0.327,0.963-0.601,1.946-0.971,2.891c-1.398,3.567-1.717,7.229-1.026,10.983
	c0.615,3.342,2.292,6.019,5.061,8.016c0.718,0.518,1.405,0.575,1.88-0.168c1.618-2.53,3.627-2.316,5.854-0.96
	c0.164,0.1,0.363,0.14,0.531,0.232c0.707,0.388,1.174,0.12,1.561-0.511c4-6.513,3.306-15.226-1.981-20.072
	C315.351,144.319,314.249,143.302,313.124,142.31z M294.905,134.531c1.681,0.206,3.376,0.287,5.062,0.458
	c0.626,0.063,1-0.12,1.214-0.738c0.189-0.545,0.473-1.058,0.732-1.576c0.23-0.461,0.387-0.944-0.054-1.333
	c-1.342-1.182-2.297-2.884-4.399-3.04c-0.977-0.072-1.552-0.815-1.516-1.817c0.035-0.983,0.554-1.653,1.612-1.71
	c1.057-0.056,1.926,0.395,1.955,1.488c0.045,1.735,1.537,2.355,2.351,3.494c1.391,1.947,2.607,0.165,3.901-0.11
	c0.793-0.169,0.966-0.652,0.887-1.385c-0.13-1.203-0.272-2.411-0.283-3.618c-0.011-1.179-0.319-2.261-1.112-3.065
	c-1.301-1.319-1.563-2.716-1.011-4.465c0.466-1.476-0.381-2.515-1.64-3.197c-1.405-0.761-2.952-0.646-3.866,0.435
	c-0.548,0.648-1.012,0.577-1.634,0.328c-1.637-0.657-3.343-0.944-5.104-1.002c-1.002-0.033-1.621,0.324-1.62,1.363
	c0.001,2.962-1.423,4.494-4.411,4.59c-0.97,0.031-1.147,0.611-0.912,1.507c1.051,4.005,2.834,7.604,5.709,10.627
	C292.004,132.903,293.082,134.308,294.905,134.531z M311.625,113.798c-4.085,4.24-4.691,9.369-3.745,14.866
	c0.208,1.209,1.47,0.624,2.171,1.039c0.451,0.267,0.969,0.228,1.241-0.323c0.802-1.625,2.493-2.841,2.067-5.041
	c-0.185-0.955,0.593-1.624,1.551-1.787c0.845-0.144,1.551,0.216,1.856,1.056c0.303,0.835,0.281,1.93-0.581,2.153
	c-2,0.518-2.456,2.288-3.479,3.626c-1.15,1.504,0.457,2.119,0.918,3.087c0.424,0.89,1.18,0.633,1.888,0.373
	c2.181-0.801,4.365-1.596,6.543-2.406c0.45-0.167,0.937-0.309,1.227-0.736c3.223-4.748,4.613-9.773,2.353-15.368
	c-0.344-0.853-0.863-1.363-1.76-0.946c-2.658,1.237-4.344,0.168-5.533-2.208c-0.021-0.043-0.056-0.079-0.081-0.121
	c-0.611-1.018-1.377-1.236-2.41-0.559c-1.296,0.85-2.597,1.688-3.704,2.786C311.97,113.458,311.793,113.623,311.625,113.798z
	 M311.908,132.319c-2.254-2.303-5.876-2.393-8.113-0.2c-2.224,2.179-2.3,5.905-0.167,8.157c2.159,2.28,5.997,2.353,8.266,0.157
	C314.143,138.256,314.149,134.609,311.908,132.319z"/>
<path opacity="0.2" fill="#BC1837" d="M517.459,107.283c-5.889,5.117-12.157,4.411-18.577,1.194c-0.958-0.48-1.852-1.09-2.816-1.554
	c-0.918-0.441-1.134-0.992-0.931-2.025c0.223-1.135,0.963-1.054,1.685-1.029c1.362,0.048,2.785-0.675,4.089,0.501
	c0.398,0.359,0.554-0.383,0.501-0.755c-0.056-0.392-0.316-0.813,0.185-1.054c0.537-0.258,0.647,0.259,0.887,0.559
	c0.195,0.244,0.525,0.493,0.802,0.331c0.372-0.218,0.197-0.65,0.089-0.973c-0.377-1.12-1.87-1.497-2.75-0.641
	c-1.507,1.466-3.372,0.759-5.073,0.835c-0.743,0.033-1.07-2.28-0.4-2.78c2.005-1.496,3.988-3.031,6.073-4.408
	c1.541-1.017,3.397-1.078,5.183-1.076c3.995,0.003,7.506,1.391,10.596,3.905c0.625,0.509,0.879,1.101,0.319,1.711
	c-2.113,2.304-1.836,4.457,0.287,6.554c0.06,0.059,0.079,0.159,0.117,0.24C517.636,106.972,517.548,107.127,517.459,107.283z
	 M474.274,125.608c0.563-0.134,1.123-0.279,1.689-0.401c4.406-0.948,8.266-2.829,11.108-6.468c0.338-0.433,0.627-0.867,0.651-1.434
	c0.087-2.098,0.167-4.197,0.266-6.294c0.061-1.286-1.147-1.026-1.775-1.456c-0.474-0.324-1.103-0.628-1.563-0.009
	c-1,1.346-2.673,2.249-2.627,4.302c0.018,0.797-0.662,1.375-1.552,1.372c-0.847-0.003-1.458-0.455-1.675-1.281
	c-0.223-0.847,0.097-1.715,0.917-1.825c1.955-0.263,2.709-1.864,3.845-3.055c0.304-0.319,0.745-0.68,0.379-1.144
	c-0.589-0.746-0.75-2.263-1.691-2.2c-2.114,0.143-4.427,0.2-6.236,1.333c-4.598,2.881-7.141,7.128-7.488,12.619
	c-0.052,0.828,0.214,1.094,1.037,1.113c1.189,0.027,2.717-0.504,3.479,0.296c0.781,0.819,0.506,2.37,0.698,3.6
	c0.034,0.22,0.048,0.444,0.071,0.666C473.963,125.431,474.118,125.519,474.274,125.608z M495.112,107.745
	c-0.809-0.385-2.577,0.782-2.206,1.492c0.774,1.482,1.123,3.343,2.963,4.069c0.96,0.379,1.476,1.037,1.129,2.088
	c-0.306,0.927-0.997,1.402-1.977,1.143c-1.052-0.279-1.332-1.114-1.206-2.097c0.244-1.916-1.222-3.042-2.04-4.464
	c-0.141-0.246-0.477-0.157-0.749-0.128c-1.797,0.19-1.874,0.266-1.965,2.126c-0.046,0.936-0.039,1.877-0.128,2.81
	c-0.335,3.517,0.312,6.845,1.876,9.998c1.393,2.807,3.559,4.755,6.52,5.823c0.768,0.277,1.392,0.154,1.625-0.626
	c0.792-2.653,2.628-2.973,4.947-2.336c0.17,0.047,0.357,0.032,0.53,0.071c0.725,0.165,1.072-0.192,1.255-0.849
	c1.895-6.789-0.93-14.338-6.847-17.293C497.597,108.962,496.361,108.34,495.112,107.745z M476.987,105.47
	c1.542-0.244,3.066-0.602,4.604-0.878c0.571-0.103,0.856-0.36,0.889-0.962c0.029-0.531,0.151-1.057,0.249-1.583
	c0.087-0.467,0.104-0.935-0.386-1.168c-1.49-0.708-2.768-1.974-4.671-1.579c-0.884,0.184-1.582-0.329-1.805-1.226
	c-0.218-0.881,0.072-1.606,0.996-1.925c0.923-0.318,1.808-0.138,2.11,0.824c0.48,1.527,1.96,1.698,2.97,2.501
	c1.727,1.373,2.353-0.515,3.431-1.087c0.66-0.351,0.691-0.824,0.436-1.453c-0.42-1.033-0.853-2.069-1.169-3.136
	c-0.308-1.042-0.856-1.923-1.763-2.435c-1.488-0.84-2.075-2.012-2.028-3.703c0.039-1.427-0.976-2.133-2.265-2.419
	c-1.439-0.318-2.781,0.176-3.317,1.366c-0.322,0.714-0.751,0.769-1.365,0.705c-1.618-0.167-3.203,0.011-4.779,0.406
	c-0.897,0.225-1.355,0.698-1.091,1.62c0.752,2.626-0.122,4.346-2.747,5.188c-0.852,0.274-0.862,0.833-0.427,1.567
	c1.947,3.284,4.44,6.023,7.757,7.974C474.003,104.762,475.314,105.734,476.987,105.47z M486.552,82.847
	c-2.546,4.795-1.783,9.496,0.45,14.129c0.491,1.019,1.462,0.18,2.189,0.37c0.468,0.122,0.917-0.043,1.018-0.601
	c0.299-1.644,1.489-3.151,0.554-4.993c-0.406-0.8,0.114-1.59,0.922-1.977c0.713-0.342,1.43-0.202,1.913,0.466
	c0.481,0.664,0.739,1.64,0.031,2.056c-1.642,0.966-1.597,2.652-2.165,4.097c-0.638,1.625,0.942,1.762,1.597,2.504
	c0.602,0.682,1.206,0.262,1.768-0.148c1.731-1.263,3.465-2.522,5.19-3.793c0.356-0.262,0.752-0.512,0.901-0.963
	c1.653-5.027,1.611-9.835-1.812-14.222c-0.522-0.669-1.111-0.99-1.8-0.392c-2.043,1.771-3.808,1.251-5.465-0.554
	c-0.03-0.033-0.07-0.056-0.102-0.086c-0.8-0.748-1.535-0.747-2.279,0.116c-0.934,1.083-1.874,2.155-2.578,3.409
	C486.772,82.459,486.657,82.65,486.552,82.847z M491.5,99.196c-2.583-1.47-5.816-0.631-7.244,1.88
	c-1.419,2.496-0.542,5.819,1.921,7.275c2.493,1.474,5.914,0.565,7.368-1.957C494.988,103.893,494.068,100.658,491.5,99.196z"/>
<path opacity="0.2" fill="#BC1837" d="M493.998,75.899c-4.467-0.996-6.319-4.201-7.038-8.352c-0.107-0.619-0.131-1.254-0.248-1.871
	c-0.112-0.587,0.073-0.881,0.632-1.145c0.614-0.29,0.833,0.087,1.073,0.437c0.452,0.66,1.289,1.079,1.189,2.104
	c-0.031,0.313,0.374,0.128,0.531-0.026c0.166-0.163,0.273-0.433,0.562-0.28c0.309,0.163,0.103,0.396,0.045,0.613
	c-0.047,0.177-0.05,0.42,0.123,0.494c0.232,0.1,0.376-0.133,0.49-0.297c0.397-0.569,0.055-1.404-0.656-1.521
	c-1.217-0.201-1.533-1.327-2.162-2.104c-0.275-0.339,0.703-1.3,1.173-1.158c1.405,0.425,2.82,0.826,4.197,1.33
	c1.017,0.373,1.693,1.228,2.314,2.071c1.391,1.887,1.96,4.028,1.85,6.362c-0.022,0.472-0.213,0.799-0.696,0.747
	c-1.824-0.195-2.743,0.686-2.993,2.419c-0.007,0.049-0.048,0.093-0.072,0.139C494.207,75.875,494.103,75.887,493.998,75.899z
	 M470.299,61.902c0.259,0.219,0.523,0.433,0.778,0.658c1.983,1.749,4.216,2.916,6.924,2.989c0.322,0.009,0.628-0.006,0.904-0.193
	c1.021-0.69,2.039-1.384,3.064-2.068c0.628-0.42,0.085-0.899,0.069-1.345c-0.012-0.337-0.088-0.739-0.54-0.741
	c-0.984-0.003-1.993-0.478-2.946,0.259c-0.37,0.286-0.88,0.167-1.189-0.255c-0.294-0.401-0.293-0.847,0.021-1.237
	c0.322-0.4,0.843-0.552,1.181-0.203c0.805,0.831,1.824,0.629,2.782,0.75c0.256,0.032,0.581,0.115,0.672-0.22
	c0.147-0.538,0.807-1.143,0.449-1.565c-0.804-0.948-1.637-2.02-2.803-2.479c-2.962-1.166-5.853-0.886-8.566,0.863
	c-0.409,0.264-0.442,0.482-0.164,0.877c0.402,0.57,1.185,1.107,1.073,1.745c-0.115,0.654-0.942,1.065-1.456,1.584
	c-0.092,0.093-0.193,0.177-0.29,0.266C470.274,61.694,470.287,61.798,470.299,61.902z M485.992,65.513
	c-0.1-0.516-1.267-0.944-1.473-0.521c-0.43,0.882-1.186,1.695-0.888,2.816c0.156,0.585,0.025,1.058-0.592,1.26
	c-0.544,0.179-1.009,0.018-1.228-0.535c-0.235-0.594,0.062-1.017,0.569-1.3c0.99-0.553,1.01-1.637,1.396-2.518
	c0.067-0.152-0.092-0.28-0.2-0.398c-0.716-0.782-0.779-0.792-1.688-0.186c-0.458,0.305-0.9,0.636-1.371,0.919
	c-1.776,1.067-3.122,2.532-4.065,4.37c-0.84,1.636-1.004,3.337-0.476,5.107c0.137,0.459,0.412,0.711,0.861,0.549
	c1.529-0.551,2.319,0.204,2.826,1.521c0.037,0.097,0.109,0.18,0.151,0.275c0.175,0.4,0.464,0.439,0.838,0.297
	c3.865-1.472,6.443-5.436,5.776-9.259C486.284,67.11,486.147,66.309,485.992,65.513z M480.75,56.165
	c0.653,0.643,1.353,1.238,2.019,1.867c0.247,0.234,0.468,0.279,0.764,0.084c0.261-0.171,0.552-0.297,0.834-0.434
	c0.251-0.122,0.478-0.277,0.417-0.589c-0.185-0.95-0.033-1.994-0.882-2.755c-0.395-0.353-0.396-0.861-0.05-1.279
	c0.34-0.41,0.783-0.526,1.255-0.201c0.472,0.325,0.695,0.805,0.347,1.283c-0.553,0.759-0.118,1.517-0.145,2.274
	c-0.046,1.294,1.063,0.931,1.709,1.24c0.396,0.189,0.63,0.039,0.837-0.301c0.341-0.558,0.679-1.123,1.073-1.644
	c0.385-0.509,0.609-1.074,0.535-1.681c-0.122-0.995,0.227-1.68,1.041-2.248c0.687-0.479,0.667-1.204,0.352-1.912
	c-0.351-0.79-1.052-1.251-1.801-1.09c-0.449,0.097-0.625-0.087-0.809-0.399c-0.485-0.822-1.121-1.508-1.857-2.114
	c-0.419-0.345-0.802-0.396-1.145,0.05c-0.977,1.27-2.093,1.457-3.406,0.512c-0.426-0.307-0.694-0.117-0.888,0.345
	c-0.872,2.064-1.295,4.195-1.06,6.44C480.044,54.51,480.042,55.468,480.75,56.165z M494.761,52.796
	c-3.15,0.469-5.103,2.468-6.512,5.136c-0.31,0.587,0.424,0.753,0.588,1.162c0.105,0.263,0.34,0.418,0.639,0.271
	c0.88-0.432,2.006-0.395,2.55-1.479c0.236-0.47,0.79-0.5,1.254-0.254c0.41,0.217,0.593,0.604,0.447,1.065
	c-0.146,0.458-0.516,0.92-0.96,0.731c-1.028-0.438-1.808,0.17-2.688,0.406c-0.989,0.265-0.504,1.059-0.626,1.627
	c-0.112,0.522,0.297,0.661,0.686,0.783c1.199,0.377,2.398,0.757,3.599,1.128c0.248,0.077,0.504,0.177,0.769,0.089
	c2.949-0.972,5.203-2.667,6.081-5.811c0.134-0.479,0.08-0.869-0.442-0.986c-1.548-0.347-1.918-1.362-1.643-2.773
	c0.005-0.025,0.002-0.052,0.005-0.078c0.074-0.638-0.182-0.985-0.849-1.035c-0.836-0.063-1.67-0.134-2.507-0.028
	C495.021,52.764,494.89,52.777,494.761,52.796z M488.769,60.829c-0.206-1.731-1.729-2.965-3.412-2.764
	c-1.672,0.2-2.935,1.772-2.764,3.442c0.173,1.69,1.794,2.988,3.492,2.796C487.767,64.112,488.974,62.55,488.769,60.829z"/>
<path opacity="0.2" fill="#BC1837" d="M312.256,60.468c-4.741,5.134-10.391,5.12-16.424,2.886c-0.9-0.333-1.756-0.789-2.66-1.108
	c-0.86-0.303-1.107-0.772-1.027-1.712c0.087-1.033,0.754-1.033,1.399-1.082c1.218-0.091,2.413-0.874,3.69,0.045
	c0.39,0.281,0.456-0.395,0.372-0.721c-0.088-0.344-0.361-0.693,0.061-0.957c0.453-0.283,0.602,0.167,0.844,0.411
	c0.197,0.198,0.516,0.388,0.747,0.216c0.31-0.23,0.112-0.598-0.016-0.875c-0.446-0.96-1.812-1.15-2.511-0.301
	c-1.198,1.453-2.927,1.006-4.435,1.241c-0.658,0.103-1.177-1.925-0.629-2.436c1.638-1.529,3.253-3.09,4.975-4.52
	c1.272-1.057,2.919-1.293,4.51-1.467c3.557-0.389,6.82,0.502,9.818,2.437c0.606,0.391,0.891,0.894,0.452,1.492
	c-1.656,2.258-1.198,4.148,0.898,5.807c0.059,0.047,0.086,0.134,0.128,0.202C312.383,60.174,312.319,60.321,312.256,60.468z
	 M275.603,81.021c0.488-0.175,0.973-0.359,1.465-0.523c3.83-1.277,7.082-3.33,9.256-6.849c0.259-0.419,0.473-0.834,0.439-1.341
	c-0.128-1.877-0.263-3.753-0.38-5.63c-0.072-1.151-1.122-0.801-1.723-1.122c-0.454-0.242-1.043-0.451-1.392,0.146
	c-0.758,1.297-2.159,2.265-1.917,4.088c0.094,0.708-0.455,1.29-1.248,1.374c-0.755,0.08-1.342-0.262-1.617-0.976
	c-0.281-0.732-0.082-1.537,0.637-1.715c1.715-0.426,2.229-1.925,3.124-3.097c0.239-0.314,0.597-0.679,0.225-1.056
	c-0.598-0.607-0.89-1.941-1.721-1.792c-1.868,0.335-3.922,0.612-5.421,1.799c-3.811,3.016-5.659,7.047-5.429,11.97
	c0.035,0.742,0.298,0.953,1.032,0.889c1.061-0.093,2.37-0.715,3.126-0.078c0.776,0.653,0.683,2.061,0.975,3.137
	c0.052,0.193,0.086,0.391,0.128,0.586C275.309,80.894,275.456,80.958,275.603,81.021z M292.404,63.073
	c-0.758-0.263-2.218,0.949-1.818,1.545c0.834,1.243,1.328,2.866,3.037,3.333c0.892,0.243,1.416,0.778,1.21,1.748
	c-0.182,0.856-0.75,1.346-1.648,1.211c-0.964-0.145-1.295-0.861-1.28-1.749c0.029-1.73-1.387-2.588-2.254-3.774
	c-0.15-0.205-0.44-0.093-0.679-0.041c-1.581,0.345-1.643,0.421-1.541,2.086c0.051,0.838,0.149,1.675,0.162,2.514
	c0.047,3.164,0.949,6.064,2.651,8.718c1.516,2.363,3.635,3.885,6.376,4.545c0.711,0.171,1.254,0,1.385-0.716
	c0.445-2.44,2.048-2.905,4.175-2.565c0.156,0.025,0.321-0.007,0.479,0.011c0.662,0.076,0.935-0.276,1.034-0.879
	c1.021-6.231-2.235-12.674-7.793-14.726C294.736,63.912,293.574,63.479,292.404,63.073z M276.043,62.825
	c1.349-0.369,2.671-0.837,4.013-1.234c0.498-0.147,0.727-0.404,0.697-0.944c-0.026-0.475,0.031-0.956,0.066-1.434
	c0.032-0.425,0.001-0.843-0.458-1.002c-1.396-0.484-2.658-1.486-4.314-0.948c-0.769,0.25-1.441-0.138-1.727-0.915
	c-0.281-0.763-0.094-1.437,0.698-1.811c0.791-0.374,1.596-0.3,1.96,0.526c0.577,1.312,1.911,1.319,2.89,1.936
	c1.673,1.053,2.045-0.689,2.948-1.305c0.554-0.377,0.535-0.801,0.245-1.336c-0.476-0.879-0.962-1.758-1.348-2.677
	c-0.377-0.898-0.951-1.629-1.809-1.995c-1.407-0.602-2.044-1.588-2.169-3.098c-0.105-1.274-1.078-1.804-2.254-1.931
	c-1.312-0.142-2.459,0.429-2.819,1.542c-0.216,0.667-0.593,0.758-1.147,0.762c-1.457,0.01-2.851,0.324-4.215,0.83
	c-0.777,0.288-1.138,0.755-0.812,1.549c0.927,2.264,0.318,3.881-1.937,4.889c-0.732,0.327-0.686,0.826-0.226,1.437
	c2.056,2.733,4.545,4.927,7.689,6.338C273.316,62.488,274.579,63.225,276.043,62.825z M282.34,41.744
	c-1.797,4.519-0.656,8.63,1.787,12.536c0.537,0.859,1.319,0.017,1.985,0.115c0.428,0.063,0.812-0.129,0.848-0.635
	c0.105-1.493,1.017-2.952,0.003-4.5c-0.44-0.672-0.054-1.427,0.626-1.851c0.601-0.374,1.253-0.32,1.749,0.227
	c0.493,0.544,0.819,1.387,0.229,1.828c-1.367,1.022-1.162,2.518-1.525,3.86c-0.409,1.509,1.012,1.477,1.668,2.073
	c0.603,0.548,1.1,0.115,1.56-0.305c1.417-1.295,2.838-2.586,4.249-3.886c0.291-0.269,0.62-0.53,0.708-0.946
	c0.979-4.638,0.469-8.914-3.008-12.485c-0.53-0.544-1.086-0.772-1.641-0.173c-1.646,1.777-3.268,1.487-4.921,0.043
	c-0.03-0.026-0.068-0.043-0.1-0.067c-0.785-0.588-1.44-0.515-2.018,0.327c-0.725,1.055-1.457,2.103-1.961,3.288
	C282.498,41.377,282.414,41.558,282.34,41.744z M288.349,55.815c-2.444-1.056-5.24,0.009-6.265,2.385
	c-1.019,2.361,0.089,5.234,2.424,6.289c2.364,1.068,5.321-0.077,6.368-2.466C291.915,59.655,290.779,56.865,288.349,55.815z"/>
<path opacity="0.2" fill="#BC1837" d="M153.142,88.12c-3.833,7.157-10.191,8.791-17.627,8.039c-1.109-0.112-2.205-0.375-3.315-0.469
	c-1.056-0.089-1.47-0.545-1.655-1.625c-0.203-1.187,0.546-1.382,1.258-1.625c1.343-0.458,2.459-1.687,4.162-1.026
	c0.521,0.202,0.398-0.577,0.208-0.92c-0.199-0.361-0.608-0.674-0.21-1.094c0.427-0.45,0.725,0.012,1.07,0.216
	c0.28,0.166,0.694,0.285,0.903,0.025c0.281-0.349-0.049-0.705-0.274-0.979c-0.782-0.95-2.373-0.764-2.912,0.394
	c-0.924,1.983-2.998,1.986-4.625,2.69c-0.71,0.308-1.885-1.822-1.418-2.556c1.396-2.197,2.756-4.424,4.275-6.535
	c1.122-1.56,2.905-2.306,4.643-2.966c3.887-1.476,7.816-1.426,11.752-0.125c0.796,0.263,1.263,0.745,0.944,1.546
	c-1.203,3.023-0.136,5.015,2.705,6.268c0.08,0.035,0.136,0.125,0.202,0.19C153.2,87.752,153.171,87.936,153.142,88.12z
	 M117.923,121.931c0.498-0.339,0.989-0.687,1.494-1.015c3.935-2.554,6.992-5.812,8.41-10.403c0.169-0.546,0.289-1.076,0.102-1.636
	c-0.692-2.073-1.391-4.144-2.071-6.221c-0.417-1.274-1.495-0.574-2.266-0.759c-0.581-0.14-1.305-0.202-1.523,0.57
	c-0.474,1.679-1.767,3.177-0.962,5.156c0.312,0.768-0.135,1.583-1.002,1.909c-0.825,0.311-1.586,0.097-2.103-0.626
	c-0.53-0.741-0.541-1.704,0.216-2.115c1.805-0.979,1.945-2.816,2.609-4.395c0.178-0.423,0.473-0.937-0.055-1.253
	c-0.849-0.508-1.567-1.924-2.459-1.513c-2.003,0.922-4.232,1.833-5.571,3.605c-3.405,4.504-4.307,9.577-2.611,15.045
	c0.256,0.825,0.613,0.985,1.42,0.699c1.166-0.414,2.456-1.496,3.493-1c1.063,0.508,1.37,2.118,2.012,3.243
	c0.115,0.202,0.211,0.414,0.315,0.622C117.555,121.874,117.739,121.902,117.923,121.931z M131.578,96.843
	c-0.93-0.075-2.217,1.714-1.593,2.268c1.301,1.155,2.33,2.836,4.388,2.861c1.074,0.013,1.82,0.462,1.871,1.613
	c0.045,1.015-0.45,1.733-1.5,1.843c-1.127,0.119-1.707-0.59-1.95-1.593c-0.472-1.954-2.315-2.506-3.636-3.587
	c-0.228-0.187-0.522,0.024-0.776,0.152c-1.678,0.85-1.724,0.953-1.124,2.796c0.302,0.928,0.657,1.841,0.916,2.78
	c0.976,3.544,2.837,6.542,5.526,9.03c2.394,2.215,5.221,3.307,8.497,3.25c0.849-0.015,1.411-0.366,1.348-1.21
	c-0.212-2.874,1.456-3.865,3.947-4.103c0.183-0.017,0.359-0.101,0.542-0.127c0.766-0.108,0.971-0.583,0.906-1.29
	c-0.671-7.305-6.213-13.601-13.062-14.285C134.445,97.107,133.013,96.959,131.578,96.843z M113.107,101.339
	c1.41-0.808,2.76-1.721,4.153-2.559c0.518-0.311,0.699-0.667,0.509-1.265c-0.168-0.527-0.245-1.084-0.344-1.632
	c-0.088-0.487-0.245-0.948-0.808-0.993c-1.711-0.137-3.423-0.896-5.128,0.193c-0.792,0.506-1.661,0.266-2.209-0.525
	c-0.539-0.776-0.525-1.589,0.256-2.241c0.78-0.651,1.707-0.804,2.358,0.02c1.032,1.307,2.534,0.926,3.815,1.333
	c2.188,0.696,2.098-1.372,2.934-2.328c0.512-0.586,0.368-1.057-0.114-1.574c-0.791-0.85-1.595-1.696-2.298-2.617
	c-0.686-0.9-1.545-1.554-2.616-1.716c-1.758-0.266-2.762-1.189-3.344-2.85c-0.49-1.402-1.739-1.714-3.098-1.514
	c-1.517,0.223-2.64,1.2-2.721,2.557c-0.049,0.814-0.446,1.026-1.067,1.191c-1.636,0.436-3.111,1.196-4.498,2.164
	c-0.789,0.551-1.059,1.181-0.461,1.979c1.704,2.276,1.49,4.272-0.751,6.063c-0.728,0.582-0.53,1.129,0.165,1.682
	c3.11,2.474,6.548,4.214,10.496,4.884C109.942,101.756,111.578,102.216,113.107,101.339z M114.036,75.796
	c-0.702,5.606,1.781,9.896,5.668,13.576c0.855,0.809,1.488-0.366,2.266-0.45c0.5-0.054,0.876-0.382,0.768-0.962
	c-0.318-1.71,0.282-3.616-1.31-5.062c-0.691-0.628-0.478-1.589,0.164-2.264c0.567-0.596,1.316-0.725,2.033-0.255
	c0.713,0.467,1.325,1.321,0.791,1.989c-1.239,1.548-0.572,3.17-0.589,4.787c-0.019,1.817,1.569,1.365,2.48,1.845
	c0.838,0.44,1.27-0.192,1.665-0.798c1.216-1.869,2.436-3.736,3.644-5.61c0.249-0.387,0.542-0.777,0.52-1.27
	c-0.253-5.501-2.074-10.162-7.027-13.162c-0.755-0.457-1.447-0.551-1.896,0.285c-1.332,2.479-3.241,2.626-5.521,1.484
	c-0.041-0.021-0.088-0.029-0.131-0.046c-1.055-0.432-1.769-0.158-2.174,0.956c-0.507,1.399-1.025,2.79-1.245,4.27
	C114.106,75.336,114.064,75.565,114.036,75.796z M124.901,89.865c-3.056-0.474-5.89,1.539-6.349,4.51
	c-0.456,2.953,1.627,5.86,4.561,6.364c2.97,0.511,5.961-1.64,6.442-4.632C130.031,93.142,127.939,90.336,124.901,89.865z"/>
<path opacity="0.2" fill="#BC1837" d="M19.05,84.817c-4.338-3.654-4.536-8.236-2.947-13.21c0.237-0.742,0.575-1.453,0.8-2.198
	c0.214-0.709,0.585-0.926,1.35-0.896c0.84,0.033,0.866,0.573,0.929,1.095c0.119,0.984,0.798,1.924,0.1,2.993
	c-0.213,0.327,0.337,0.355,0.599,0.275c0.275-0.084,0.548-0.319,0.778,0.014c0.246,0.357-0.113,0.494-0.302,0.7
	c-0.154,0.167-0.295,0.433-0.148,0.613c0.198,0.243,0.489,0.069,0.709-0.046c0.762-0.397,0.865-1.511,0.151-2.047
	c-1.222-0.918-0.924-2.336-1.17-3.55c-0.108-0.53,1.518-1.025,1.952-0.6c1.3,1.272,2.626,2.523,3.849,3.867
	c0.904,0.992,1.156,2.319,1.356,3.602c0.447,2.87-0.155,5.548-1.613,8.05c-0.295,0.506-0.692,0.755-1.193,0.422
	c-1.892-1.259-3.408-0.818-4.675,0.943c-0.036,0.05-0.105,0.075-0.159,0.111C19.293,84.91,19.171,84.863,19.05,84.817z M1.03,55.859
	c0.16,0.389,0.327,0.776,0.478,1.168c1.177,3.058,2.962,5.619,5.895,7.251c0.349,0.194,0.693,0.353,1.103,0.306
	c1.517-0.174,3.033-0.352,4.551-0.517c0.931-0.101,0.608-0.939,0.846-1.439c0.18-0.377,0.327-0.863-0.169-1.123
	c-1.079-0.567-1.916-1.667-3.385-1.403c-0.57,0.102-1.062-0.321-1.16-0.961c-0.093-0.609,0.163-1.098,0.732-1.347
	c0.583-0.255,1.243-0.123,1.414,0.453c0.408,1.375,1.644,1.736,2.627,2.418c0.263,0.182,0.572,0.459,0.864,0.144
	c0.47-0.507,1.541-0.793,1.39-1.462c-0.34-1.502-0.642-3.157-1.659-4.329c-2.587-2.978-5.923-4.328-9.906-3.959
	c-0.601,0.056-0.762,0.277-0.683,0.87c0.114,0.857,0.667,1.895,0.179,2.532c-0.501,0.653-1.645,0.63-2.507,0.906
	c-0.155,0.049-0.314,0.084-0.471,0.126C1.122,55.616,1.076,55.738,1.03,55.859z M16.204,68.818c0.186-0.625-0.851-1.763-1.32-1.417
	c-0.977,0.722-2.275,1.183-2.59,2.586c-0.164,0.732-0.579,1.177-1.373,1.046c-0.7-0.116-1.119-0.558-1.043-1.291
	c0.082-0.787,0.65-1.082,1.371-1.102c1.404-0.04,2.047-1.22,2.977-1.967c0.161-0.129,0.059-0.36,0.008-0.552
	c-0.338-1.269-0.402-1.316-1.748-1.172c-0.678,0.073-1.353,0.183-2.032,0.224c-2.564,0.155-4.881,0.994-6.97,2.472
	c-1.86,1.316-3.015,3.091-3.449,5.338c-0.113,0.583,0.046,1.017,0.632,1.097c1.995,0.271,2.431,1.553,2.234,3.29
	c-0.014,0.128,0.017,0.26,0.008,0.389c-0.037,0.54,0.258,0.748,0.751,0.806c5.09,0.597,10.194-2.281,11.651-6.863
	C15.609,70.739,15.917,69.782,16.204,68.818z M15.8,55.543c0.349,1.08,0.777,2.135,1.149,3.208c0.138,0.399,0.355,0.574,0.791,0.53
	c0.384-0.039,0.777-0.011,1.165,0.001c0.345,0.01,0.683-0.031,0.795-0.409c0.341-1.149,1.107-2.21,0.609-3.533
	c-0.231-0.615,0.058-1.173,0.678-1.434c0.608-0.256,1.162-0.129,1.494,0.499c0.332,0.627,0.303,1.283-0.354,1.609
	c-1.043,0.517-0.999,1.598-1.462,2.415c-0.792,1.395,0.635,1.632,1.167,2.342c0.326,0.435,0.669,0.404,1.092,0.149
	c0.695-0.418,1.39-0.845,2.121-1.192c0.714-0.339,1.285-0.831,1.551-1.54c0.436-1.163,1.212-1.716,2.431-1.873
	c1.029-0.133,1.423-0.941,1.482-1.899c0.067-1.069-0.439-1.978-1.354-2.229c-0.549-0.151-0.636-0.453-0.66-0.901
	c-0.062-1.181-0.368-2.299-0.829-3.387c-0.263-0.619-0.654-0.894-1.286-0.601c-1.802,0.836-3.135,0.401-4.036-1.389
	c-0.292-0.582-0.695-0.526-1.174-0.13c-2.14,1.768-3.826,3.867-4.855,6.468C15.972,53.32,15.421,54.371,15.8,55.543z M33.125,59.869
	c-3.73-1.29-7.021-0.212-10.098,1.912c-0.677,0.467,0.035,1.07-0.02,1.614c-0.035,0.35,0.134,0.654,0.546,0.664
	c1.215,0.03,2.431,0.715,3.649-0.164c0.529-0.382,1.155-0.097,1.524,0.44c0.326,0.474,0.306,1.004-0.119,1.426
	c-0.423,0.42-1.095,0.715-1.474,0.253c-0.879-1.071-2.084-0.849-3.186-1.094c-1.239-0.276-1.16,0.875-1.619,1.429
	c-0.422,0.509-0.053,0.896,0.305,1.253c1.102,1.101,2.201,2.205,3.308,3.302c0.229,0.226,0.452,0.483,0.793,0.539
	c3.797,0.622,7.245,0.051,10.012-2.901c0.422-0.45,0.586-0.909,0.079-1.337c-1.502-1.269-1.327-2.595-0.217-3.988
	c0.02-0.025,0.032-0.056,0.051-0.083c0.447-0.659,0.364-1.186-0.339-1.624c-0.883-0.549-1.759-1.104-2.739-1.468
	C33.428,59.983,33.278,59.922,33.125,59.869z M21.938,65.262c0.766-2.02-0.201-4.248-2.165-4.992
	c-1.952-0.739-4.24,0.265-5.009,2.198c-0.778,1.956,0.259,4.311,2.235,5.072C18.957,68.295,21.177,67.271,21.938,65.262z"/>
<path opacity="0.2" fill="#BC1837" d="M231.318,30.591c1.261,4.919-0.978,8.362-4.723,11.16c-0.559,0.418-1.175,0.76-1.726,1.186
	c-0.524,0.405-0.908,0.37-1.45-0.049c-0.596-0.461-0.333-0.868-0.108-1.281c0.425-0.779,0.419-1.817,1.484-2.233
	c0.325-0.127-0.061-0.434-0.293-0.512c-0.244-0.082-0.565-0.053-0.559-0.415c0.006-0.388,0.339-0.301,0.584-0.353
	c0.199-0.042,0.44-0.162,0.427-0.37c-0.018-0.28-0.321-0.304-0.54-0.335c-0.762-0.107-1.417,0.651-1.175,1.413
	c0.413,1.305-0.542,2.183-0.993,3.196c-0.197,0.442-1.639-0.042-1.735-0.578c-0.286-1.603-0.601-3.205-0.794-4.82
	c-0.143-1.193,0.363-2.291,0.885-3.331c1.167-2.324,2.998-3.963,5.363-5.028c0.478-0.215,0.897-0.191,1.089,0.313
	c0.724,1.902,2.058,2.368,3.898,1.744c0.052-0.018,0.116,0,0.174,0.002C231.189,30.397,231.253,30.494,231.318,30.591z
	 M229.389,61.068c0.086-0.367,0.165-0.735,0.259-1.1c0.733-2.841,0.764-5.636-0.525-8.351c-0.153-0.323-0.322-0.618-0.645-0.797
	c-1.196-0.662-2.394-1.321-3.585-1.991c-0.731-0.411-0.932,0.368-1.365,0.608c-0.327,0.181-0.687,0.459-0.461,0.907
	c0.492,0.975,0.529,2.211,1.738,2.783c0.469,0.222,0.607,0.787,0.346,1.304c-0.249,0.492-0.69,0.716-1.234,0.601
	c-0.558-0.117-0.97-0.557-0.795-1.066c0.417-1.214-0.295-2.12-0.657-3.129c-0.097-0.27-0.179-0.632-0.555-0.554
	c-0.606,0.125-1.536-0.224-1.773,0.343c-0.533,1.272-1.175,2.635-1.043,4.018c0.336,3.516,2.066,6.235,5.16,8.038
	c0.467,0.272,0.699,0.195,0.95-0.279c0.362-0.684,0.499-1.728,1.187-1.938c0.705-0.215,1.527,0.396,2.299,0.644
	c0.138,0.044,0.272,0.102,0.408,0.153C229.195,61.198,229.292,61.133,229.389,61.068z M225.07,43.732
	c-0.46,0.359-0.297,1.728,0.225,1.719c1.088-0.018,2.273,0.321,3.232-0.537c0.501-0.448,1.034-0.557,1.544-0.048
	c0.45,0.449,0.525,0.989,0.088,1.484c-0.469,0.531-1.036,0.45-1.572,0.091c-1.044-0.701-2.127-0.176-3.193-0.115
	c-0.184,0.011-0.23,0.232-0.293,0.398c-0.414,1.101-0.392,1.168,0.664,1.764c0.532,0.3,1.081,0.57,1.598,0.894
	c1.949,1.22,4.074,1.815,6.366,1.824c2.04,0.008,3.805-0.684,5.29-2.096c0.385-0.366,0.495-0.765,0.11-1.128
	c-1.313-1.235-0.964-2.397,0.083-3.56c0.077-0.085,0.123-0.198,0.196-0.288c0.307-0.374,0.201-0.679-0.128-0.978
	c-3.399-3.083-8.616-3.64-12.061-1.058C226.503,42.641,225.78,43.178,225.07,43.732z M218.46,53.616
	c0.308-0.969,0.544-1.96,0.832-2.936c0.107-0.362,0.04-0.603-0.301-0.798c-0.3-0.172-0.571-0.396-0.849-0.606
	c-0.247-0.187-0.514-0.333-0.792-0.116c-0.846,0.66-1.956,1.035-2.281,2.258c-0.151,0.568-0.653,0.825-1.24,0.693
	c-0.576-0.13-0.914-0.51-0.83-1.141c0.084-0.63,0.447-1.092,1.095-0.988c1.029,0.166,1.56-0.645,2.322-0.999
	c1.303-0.605,0.387-1.52,0.368-2.314c-0.012-0.487-0.278-0.643-0.718-0.677c-0.724-0.057-1.453-0.107-2.166-0.234
	c-0.697-0.124-1.369-0.063-1.931,0.316c-0.923,0.621-1.776,0.621-2.746,0.101c-0.819-0.439-1.526-0.054-2.068,0.613
	c-0.605,0.744-0.709,1.67-0.172,2.329c0.322,0.395,0.228,0.661,0.012,1c-0.569,0.893-0.928,1.867-1.157,2.9
	c-0.131,0.588,0.011,0.992,0.624,1.107c1.748,0.328,2.494,1.338,2.218,3.112c-0.089,0.576,0.233,0.745,0.788,0.705
	c2.479-0.175,4.8-0.828,6.902-2.189C217.178,55.147,218.126,54.667,218.46,53.616z M208.084,41.453
	c2.048,2.88,5.007,3.807,8.354,3.859c0.736,0.011,0.531-0.798,0.854-1.166c0.208-0.236,0.242-0.546-0.053-0.768
	c-0.87-0.654-1.399-1.786-2.745-1.779c-0.584,0.003-0.892-0.53-0.882-1.113c0.009-0.515,0.3-0.891,0.829-0.978
	c0.526-0.086,1.17,0.048,1.206,0.582c0.084,1.238,1.077,1.703,1.753,2.455c0.759,0.845,1.301-0.034,1.923-0.199
	c0.572-0.151,0.504-0.626,0.43-1.072c-0.23-1.376-0.457-2.752-0.694-4.127c-0.049-0.284-0.079-0.587-0.298-0.805
	c-2.443-2.428-5.254-3.806-8.805-3.093c-0.541,0.109-0.9,0.358-0.753,0.933c0.435,1.706-0.383,2.581-1.916,3.019
	c-0.028,0.008-0.053,0.024-0.08,0.034c-0.669,0.247-0.882,0.675-0.597,1.36c0.358,0.859,0.708,1.719,1.232,2.494
	C207.922,41.211,208,41.334,208.084,41.453z M219.042,43.34c-1.609,1.074-2.063,3.201-1.018,4.764
	c1.039,1.554,3.228,2.012,4.794,1.004c1.585-1.021,2.053-3.277,1.01-4.859C222.792,42.681,220.641,42.272,219.042,43.34z"/>
<path opacity="0.2" fill="#BC1837" d="M73.65,60.048c4.942,1.168,6.951,4.75,7.69,9.365c0.11,0.689,0.127,1.393,0.249,2.079
	c0.115,0.653-0.094,0.976-0.717,1.261c-0.685,0.313-0.923-0.108-1.184-0.5c-0.492-0.738-1.415-1.215-1.289-2.351
	c0.038-0.347-0.413-0.148-0.59,0.022c-0.186,0.179-0.31,0.476-0.627,0.303c-0.341-0.186-0.109-0.44-0.041-0.681
	c0.055-0.196,0.061-0.465-0.13-0.55c-0.256-0.114-0.419,0.143-0.548,0.323c-0.449,0.625-0.081,1.557,0.706,1.697
	c1.347,0.24,1.682,1.494,2.369,2.364c0.3,0.38-0.799,1.432-1.318,1.268c-1.553-0.491-3.117-0.956-4.637-1.535
	c-1.123-0.428-1.86-1.386-2.538-2.331c-1.516-2.113-2.117-4.496-1.962-7.084c0.031-0.524,0.248-0.883,0.783-0.819
	c2.021,0.242,3.053-0.723,3.355-2.642c0.008-0.054,0.054-0.102,0.082-0.153C73.419,60.073,73.535,60.061,73.65,60.048z
	 M99.745,75.911c-0.285-0.247-0.574-0.488-0.854-0.74c-2.176-1.969-4.636-3.294-7.639-3.414c-0.357-0.014-0.697-0.002-1.005,0.201
	c-1.142,0.751-2.282,1.506-3.428,2.251c-0.703,0.457-0.107,0.996-0.095,1.492c0.009,0.374,0.087,0.821,0.589,0.829
	c1.091,0.017,2.204,0.558,3.272-0.246c0.414-0.312,0.979-0.172,1.315,0.299c0.32,0.449,0.313,0.943-0.041,1.372
	c-0.363,0.439-0.944,0.601-1.313,0.209c-0.882-0.934-2.015-0.724-3.076-0.872c-0.284-0.04-0.643-0.135-0.749,0.234
	c-0.171,0.595-0.911,1.256-0.52,1.729c0.879,1.063,1.788,2.264,3.074,2.789c3.27,1.335,6.481,1.066,9.515-0.837
	c0.457-0.287,0.497-0.529,0.194-0.971c-0.437-0.638-1.299-1.245-1.165-1.951c0.136-0.724,1.06-1.168,1.638-1.737
	c0.103-0.102,0.217-0.194,0.325-0.291C99.77,76.143,99.758,76.027,99.745,75.911z M82.386,71.684
	c0.104,0.574,1.392,1.065,1.627,0.599c0.489-0.972,1.34-1.864,1.025-3.112c-0.164-0.651-0.013-1.174,0.674-1.39
	c0.606-0.19,1.12-0.006,1.355,0.611c0.253,0.662-0.083,1.127-0.65,1.435c-1.106,0.599-1.143,1.802-1.584,2.774
	c-0.076,0.168,0.098,0.312,0.217,0.444c0.783,0.878,0.853,0.89,1.871,0.231c0.512-0.332,1.007-0.693,1.534-1
	c1.986-1.159,3.499-2.765,4.572-4.79c0.955-1.803,1.161-3.688,0.6-5.659c-0.145-0.511-0.448-0.794-0.948-0.621
	c-1.704,0.589-2.57-0.259-3.114-1.727c-0.04-0.108-0.119-0.201-0.164-0.307c-0.188-0.446-0.508-0.494-0.925-0.341
	c-4.308,1.578-7.225,5.94-6.539,10.19C82.085,69.909,82.226,70.798,82.386,71.684z M88.07,82.129
	c-0.715-0.722-1.483-1.392-2.214-2.1c-0.271-0.263-0.515-0.316-0.846-0.104c-0.292,0.186-0.616,0.322-0.931,0.47
	c-0.28,0.132-0.534,0.3-0.471,0.648c0.192,1.056,0.008,2.213,0.94,3.069c0.433,0.398,0.427,0.961,0.038,1.42
	c-0.382,0.45-0.876,0.573-1.396,0.205c-0.519-0.367-0.76-0.903-0.366-1.429c0.625-0.834,0.153-1.681,0.193-2.52
	c0.069-1.435-1.166-1.048-1.878-1.4c-0.436-0.216-0.698-0.052-0.933,0.322c-0.387,0.615-0.769,1.237-1.213,1.809
	c-0.434,0.559-0.691,1.183-0.617,1.857c0.121,1.106-0.275,1.861-1.186,2.479c-0.769,0.522-0.757,1.326-0.418,2.116
	c0.378,0.881,1.149,1.403,1.982,1.234c0.5-0.101,0.692,0.105,0.891,0.454c0.526,0.919,1.223,1.689,2.03,2.372
	c0.46,0.389,0.884,0.451,1.271-0.039c1.102-1.395,2.343-1.587,3.786-0.52c0.469,0.347,0.768,0.139,0.99-0.37
	c0.996-2.277,1.496-4.635,1.267-7.13C88.83,83.975,88.846,82.913,88.07,82.129z M72.479,85.669c3.502-0.476,5.697-2.666,7.297-5.606
	c0.352-0.647-0.46-0.841-0.636-1.298c-0.113-0.294-0.371-0.468-0.705-0.31c-0.983,0.467-2.231,0.41-2.85,1.605
	c-0.268,0.519-0.884,0.544-1.395,0.264c-0.452-0.247-0.65-0.679-0.481-1.188c0.168-0.506,0.586-1.013,1.075-0.797
	c1.135,0.501,2.008-0.163,2.988-0.413c1.101-0.28,0.574-1.168,0.717-1.796c0.132-0.577-0.32-0.737-0.75-0.878
	c-1.325-0.435-2.65-0.873-3.977-1.302c-0.274-0.089-0.557-0.203-0.851-0.11c-3.285,1.036-5.81,2.885-6.829,6.361
	c-0.155,0.53-0.101,0.963,0.477,1.101c1.712,0.407,2.108,1.538,1.784,3.099c-0.006,0.028-0.003,0.058-0.007,0.087
	c-0.092,0.707,0.188,1.095,0.927,1.16c0.927,0.082,1.851,0.172,2.781,0.067C72.19,85.7,72.335,85.689,72.479,85.669z M79.24,76.842
	c0.204,1.924,1.876,3.314,3.746,3.114c1.858-0.198,3.281-1.925,3.115-3.779c-0.168-1.878-1.948-3.341-3.834-3.151
	C80.397,73.214,79.037,74.929,79.24,76.842z"/>
<path opacity="0.2" fill="#BC1837" d="M469.659,168.564c1.358,0.541,2.713,1.089,3.755,2.174c1.875,1.952,2.746,4.248,2.36,6.965
	c-0.228,1.606-0.236,1.605,1.326,2.049c3.815,1.086,6.351,4.66,6.066,8.553c-0.282,3.853-3.237,7.008-7.161,7.494
	c-1.043,0.129-1.295,0.375-1.185,1.479c0.422,4.228-2.284,7.87-6.371,8.795c-3.919,0.887-8.007-1.26-9.469-5.037
	c-0.282-0.728-0.474-0.767-1.172-0.433c-2.978,1.429-5.908,1.281-8.574-0.738c-2.614-1.979-3.648-4.705-3.15-7.925
	c0.294-1.9,1.236-3.525,2.75-4.761c0.554-0.452,0.717-0.738,0.092-1.368c-2.474-2.492-3.041-6.131-1.552-9.236
	c1.488-3.103,4.686-4.914,8.182-4.607c1.291,0.113,2.485,0.569,3.558,1.279c0.535,0.355,0.796,0.328,1.117-0.257
	c1.853-3.37,4.664-4.929,8.538-4.424c0.217,0.028,0.445-0.024,0.668-0.038C469.511,168.54,469.585,168.552,469.659,168.564z
	 M473.415,198.842c-0.034-1.08,0.246-2.543-0.877-3.554c-1.555-1.399-3.227-2.671-4.873-3.966c-0.49-0.385-2.214,0.407-2.013,0.891
	c0.564,1.353,0.345,3.013,1.597,4.094c0.538,0.465,0.772,1.037,0.318,1.681c-0.386,0.547-0.937,0.784-1.563,0.435
	c-0.631-0.352-0.91-0.945-0.579-1.617c0.347-0.706,0.066-1.316-0.122-1.949c-0.169-0.571-0.439-1.116-0.577-1.693
	c-0.152-0.635-0.424-0.957-1.141-0.938c-0.672,0.018-1.222-0.01-1.502,0.8c-0.574,1.66-1.193,3.308-1.88,4.924
	c-0.353,0.832-0.29,1.586-0.008,2.387c1.016,2.881,3.92,4.711,7.06,4.439C470.329,204.507,472.905,202.117,473.415,198.842z
	 M468.505,169.979c-2.031-0.396-3.913,0.186-5.505,1.624c-1.172,1.058-2.136,2.339-1.792,4.02c0.396,1.941,0.99,3.844,1.538,5.751
	c0.217,0.754,1.876,1.068,2.189,0.375c0.598-1.323,1.579-2.574,1.215-4.192c-0.165-0.735,0.114-1.267,0.831-1.495
	c0.706-0.224,1.281,0.069,1.609,0.688c0.361,0.682,0.103,1.282-0.572,1.583c-0.582,0.259-0.844,0.679-1.029,1.239
	c-0.211,0.639-0.47,1.263-0.73,1.884c-0.235,0.564-0.512,1.064,0.217,1.547c0.698,0.462,1.24,0.822,2.084,0.175
	c1.275-0.978,2.632-1.863,4.018-2.678c1.002-0.59,1.476-1.418,1.679-2.505C474.996,174.03,472.602,170.624,468.505,169.979z
	 M456.211,173.531c-3.133-0.5-5.808,0.733-7.245,3.078c-1.404,2.293-1.28,5.348,0.325,7.512c0.565,0.762,1.221,1.567,2.179,1.665
	c2.117,0.216,4.253,0.257,6.382,0.359c0.544,0.026,0.785-0.319,0.926-0.8c0.122-0.415,0.53-0.876,0.037-1.222
	c-1.223-0.858-2.088-2.284-3.808-2.373c-0.59-0.03-0.947-0.447-0.974-1.05c-0.029-0.624,0.241-1.105,0.868-1.283
	c0.568-0.161,1.183,0.005,1.326,0.546c0.378,1.435,1.649,1.964,2.609,2.806c0.492,0.432,0.93,0.892,1.74,0.316
	c0.755-0.538,0.899-1.023,0.619-1.862c-0.426-1.276-0.862-2.572-1.066-3.895C459.735,174.785,457.945,173.953,456.211,173.531z
	 M452.986,199.991c0.222,0.035,0.444,0.105,0.665,0.101c1.869-0.039,3.854-0.139,4.831-1.978c0.975-1.836,1.582-3.871,2.294-5.84
	c0.245-0.676-0.997-2.069-1.532-1.729c-1.255,0.797-2.878,1.158-3.537,2.744c-0.253,0.608-0.763,0.795-1.388,0.646
	c-0.582-0.138-0.906-0.526-0.915-1.12c-0.01-0.645,0.367-1.229,0.954-1.185c1.611,0.121,2.557-1.059,3.775-1.704
	c0.524-0.278,0.73-0.662,0.55-1.294c-0.175-0.614-0.433-0.989-1.124-1.016c-1.867-0.072-3.733-0.168-5.599-0.274
	c-0.717-0.041-1.303,0.216-1.867,0.629c-2.139,1.566-3.142,4.307-2.529,6.974C448.16,197.543,450.331,199.568,452.986,199.991z
	 M481.636,188.751c0.45-2.881-1.041-5.825-3.673-7.088c-1.296-0.622-2.679-1.131-4.07-0.272c-1.656,1.023-3.274,2.108-4.897,3.183
	c-0.677,0.448-0.59,2.135,0.154,2.208c1.444,0.142,2.951,0.695,4.37-0.127c0.649-0.376,1.22-0.367,1.691,0.234
	c0.425,0.543,0.432,1.12-0.096,1.61c-0.543,0.502-1.154,0.572-1.698,0.026c-0.355-0.357-0.738-0.438-1.21-0.443
	c-0.822-0.007-1.645-0.059-2.466-0.119c-0.511-0.037-1.018-0.086-1.137,0.58c-0.108,0.601-0.656,1.186,0.163,1.791
	c1.504,1.112,2.935,2.325,4.386,3.509c0.397,0.324,0.847,0.456,1.338,0.522C477.753,194.804,481.1,192.176,481.636,188.751z"/>
<path opacity="0.2" fill="#BC1837" d="M356.903,54.033c0.82,1.095,1.634,2.193,1.936,3.568c0.544,2.473,0.119,4.731-1.515,6.711
	c-0.966,1.171-0.972,1.166,0.058,2.283c2.516,2.729,2.795,6.819,0.669,9.788c-2.105,2.938-6.004,4.014-9.374,2.487
	c-0.896-0.406-1.217-0.332-1.668,0.603c-1.726,3.581-5.664,5.168-9.378,3.912c-3.561-1.205-5.777-4.913-5.101-8.642
	c0.13-0.719-0.004-0.844-0.724-0.917c-3.075-0.313-5.341-1.861-6.484-4.774c-1.121-2.855-0.616-5.537,1.353-7.864
	c1.162-1.373,2.707-2.211,4.518-2.458c0.663-0.091,0.933-0.239,0.741-1.047c-0.759-3.197,0.564-6.378,3.269-8.13
	c2.702-1.75,6.139-1.636,8.78,0.315c0.976,0.721,1.706,1.667,2.216,2.758c0.254,0.544,0.475,0.65,1.018,0.34
	c3.123-1.786,6.128-1.658,8.974,0.635c0.16,0.129,0.367,0.198,0.552,0.295C356.796,53.942,356.849,53.987,356.903,54.033z
	 M345.124,80.036c0.5-0.879,1.437-1.91,1.034-3.265c-0.558-1.876-1.272-3.707-1.955-5.544c-0.203-0.547-1.967-0.755-2.042-0.271
	c-0.21,1.355-1.194,2.573-0.723,4.047c0.203,0.634,0.11,1.205-0.567,1.497c-0.575,0.248-1.131,0.168-1.46-0.415
	c-0.332-0.589-0.265-1.199,0.327-1.574c0.622-0.394,0.695-1.018,0.854-1.615c0.144-0.539,0.194-1.105,0.365-1.633
	c0.188-0.582,0.129-0.97-0.453-1.305c-0.545-0.314-0.971-0.604-1.589-0.095c-1.268,1.045-2.566,2.058-3.903,3.013
	c-0.688,0.491-1.005,1.125-1.171,1.902c-0.595,2.796,0.83,5.674,3.47,6.989C339.895,83.052,343.119,82.402,345.124,80.036z
	 M355.291,54.599c-1.428-1.307-3.214-1.761-5.187-1.391c-1.452,0.273-2.846,0.825-3.393,2.334c-0.631,1.743-1.085,3.551-1.579,5.342
	c-0.195,0.707,0.976,1.768,1.564,1.368c1.123-0.764,2.517-1.284,3.015-2.753c0.226-0.667,0.71-0.956,1.393-0.788
	c0.673,0.165,0.989,0.68,0.949,1.334c-0.045,0.721-0.543,1.074-1.229,0.984c-0.591-0.077-1.005,0.131-1.426,0.487
	c-0.48,0.407-0.992,0.778-1.502,1.148c-0.463,0.335-0.928,0.6-0.582,1.34c0.331,0.709,0.588,1.261,1.578,1.156
	c1.495-0.159,3.01-0.203,4.514-0.177c1.087,0.018,1.871-0.411,2.563-1.18C358.495,61.001,358.246,57.113,355.291,54.599z
	 M343.743,51.435c-2.257-1.929-4.994-2.25-7.286-1.079c-2.24,1.145-3.631,3.644-3.407,6.155c0.079,0.884,0.21,1.847,0.926,2.393
	c1.585,1.206,3.269,2.281,4.919,3.401c0.422,0.286,0.782,0.128,1.13-0.187c0.3-0.272,0.85-0.441,0.626-0.957
	c-0.557-1.281-0.552-2.843-1.882-3.753c-0.456-0.313-0.538-0.819-0.266-1.313c0.282-0.513,0.732-0.765,1.319-0.601
	c0.532,0.148,0.942,0.582,0.792,1.083c-0.398,1.33,0.358,2.373,0.713,3.513c0.182,0.585,0.307,1.166,1.235,1.101
	c0.865-0.061,1.217-0.378,1.403-1.184c0.283-1.227,0.567-2.474,1.05-3.63C345.944,54.156,344.921,52.618,343.743,51.435z
	 M328.256,70.983c0.16,0.136,0.303,0.301,0.482,0.405c1.511,0.881,3.144,1.77,4.821,0.779c1.674-0.99,3.152-2.318,4.681-3.542
	c0.525-0.42,0.214-2.138-0.38-2.128c-1.391,0.024-2.862-0.48-4.162,0.464c-0.498,0.362-0.997,0.262-1.423-0.162
	c-0.397-0.394-0.466-0.862-0.184-1.341c0.307-0.52,0.893-0.802,1.34-0.48c1.227,0.882,2.558,0.403,3.845,0.482
	c0.554,0.034,0.906-0.172,1.07-0.765c0.16-0.575,0.137-1.001-0.402-1.359c-1.455-0.969-2.898-1.956-4.336-2.951
	c-0.552-0.382-1.146-0.463-1.797-0.409c-2.472,0.206-4.61,1.904-5.423,4.333C325.598,66.674,326.342,69.35,328.256,70.983z
	 M356.611,75.993c1.766-2.08,2.012-5.158,0.527-7.451c-0.731-1.129-1.586-2.21-3.117-2.203c-1.821,0.008-3.642,0.085-5.463,0.151
	c-0.759,0.027-1.513,1.416-0.955,1.838c1.083,0.818,2.016,1.995,3.55,2.031c0.702,0.017,1.153,0.303,1.236,1.012
	c0.074,0.64-0.202,1.105-0.862,1.238c-0.678,0.136-1.201-0.106-1.368-0.808c-0.109-0.458-0.375-0.71-0.75-0.944
	c-0.653-0.407-1.284-0.85-1.91-1.299c-0.39-0.279-0.771-0.565-1.191-0.092c-0.379,0.427-1.102,0.626-0.744,1.509
	c0.658,1.622,1.208,3.288,1.789,4.941c0.159,0.452,0.454,0.777,0.813,1.07C350.557,78.929,354.512,78.466,356.611,75.993z"/>
<path opacity="0.2" fill="#BC1837" d="M223.955,83.715c-0.04,1.367-0.086,2.734-0.706,3.998c-1.114,2.274-2.852,3.777-5.363,4.31
	c-1.485,0.315-1.487,0.308-1.376,1.823c0.271,3.702-2.057,7.077-5.569,8.077c-3.476,0.989-7.198-0.596-8.885-3.888
	c-0.448-0.875-0.745-1.018-1.68-0.566c-3.58,1.728-7.65,0.519-9.775-2.775c-2.038-3.159-1.463-7.441,1.387-9.939
	c0.55-0.481,0.522-0.663,0.004-1.169c-2.212-2.159-3.022-4.781-2.104-7.772c0.9-2.932,2.964-4.717,5.954-5.312
	c1.764-0.351,3.495-0.045,5.066,0.888c0.576,0.342,0.879,0.393,1.232-0.358c1.396-2.974,4.412-4.641,7.619-4.329
	c3.204,0.312,5.823,2.541,6.675,5.711c0.315,1.171,0.298,2.367,0.018,3.538c-0.14,0.584-0.033,0.804,0.585,0.899
	c3.556,0.546,5.828,2.517,6.629,6.083c0.045,0.2,0.164,0.383,0.248,0.574C223.928,83.577,223.942,83.646,223.955,83.715z
	 M198.551,96.735c0.938-0.377,2.314-0.6,2.842-1.912c0.731-1.816,1.312-3.693,1.921-5.556c0.181-0.554-1.069-1.815-1.429-1.483
	c-1.008,0.93-2.537,1.271-3.085,2.718c-0.236,0.622-0.664,1.011-1.375,0.819c-0.605-0.164-0.99-0.572-0.884-1.234
	c0.107-0.667,0.539-1.103,1.235-1.028c0.732,0.079,1.178-0.365,1.674-0.733c0.448-0.332,0.84-0.744,1.303-1.051
	c0.51-0.338,0.705-0.679,0.458-1.304c-0.231-0.585-0.384-1.077-1.185-1.063c-1.643,0.028-3.29,0.014-4.931-0.071
	c-0.844-0.044-1.487,0.255-2.1,0.76c-2.206,1.818-2.882,4.957-1.635,7.63C192.581,95.841,195.509,97.338,198.551,96.735z
	 M222.341,83.154c-0.304-1.912-1.42-3.379-3.194-4.317c-1.306-0.69-2.741-1.126-4.108-0.285c-1.579,0.972-3.06,2.104-4.561,3.198
	c-0.593,0.432-0.337,1.991,0.373,2.044c1.354,0.101,2.769,0.561,4.074-0.278c0.592-0.381,1.15-0.306,1.581,0.25
	c0.424,0.549,0.351,1.148-0.088,1.635c-0.484,0.537-1.093,0.502-1.574,0.005c-0.414-0.428-0.868-0.524-1.419-0.507
	c-0.629,0.019-1.261-0.008-1.89-0.036c-0.571-0.026-1.099-0.108-1.29,0.687c-0.182,0.762-0.325,1.353,0.516,1.887
	c1.269,0.806,2.482,1.715,3.644,2.671c0.84,0.691,1.72,0.842,2.741,0.672C220.864,90.16,223.089,86.962,222.341,83.154z
	 M215.273,73.49c-0.566-2.914-2.508-4.869-5.031-5.379c-2.466-0.498-5.111,0.592-6.498,2.697c-0.488,0.741-0.986,1.576-0.764,2.449
	c0.49,1.93,1.139,3.82,1.733,5.723c0.152,0.487,0.532,0.587,1.001,0.557c0.404-0.026,0.94,0.184,1.086-0.36
	c0.361-1.35,1.337-2.568,0.863-4.108c-0.163-0.529,0.089-0.975,0.61-1.193c0.54-0.226,1.048-0.143,1.406,0.351
	c0.324,0.447,0.375,1.042-0.054,1.341c-1.14,0.793-1.197,2.079-1.629,3.194c-0.221,0.571-0.485,1.104,0.281,1.63
	c0.715,0.491,1.188,0.462,1.835-0.054c0.985-0.784,1.984-1.583,3.081-2.187C215.302,76.99,215.458,75.15,215.273,73.49z
	 M190.984,79.15c0.04,0.206,0.05,0.424,0.125,0.617c0.634,1.63,1.359,3.343,3.289,3.61c1.926,0.267,3.91,0.147,5.868,0.141
	c0.673-0.002,1.498-1.54,1.027-1.902c-1.103-0.847-1.941-2.157-3.546-2.228c-0.615-0.027-0.943-0.415-1.013-1.012
	c-0.065-0.556,0.172-0.965,0.691-1.164c0.564-0.216,1.198-0.072,1.348,0.458c0.411,1.454,1.752,1.907,2.709,2.77
	c0.412,0.372,0.816,0.429,1.314,0.068c0.483-0.351,0.73-0.698,0.532-1.314c-0.536-1.664-1.051-3.335-1.556-5.009
	c-0.194-0.643-0.608-1.076-1.152-1.439c-2.063-1.377-4.794-1.379-6.941,0.016C191.586,74.123,190.503,76.681,190.984,79.15z
	 M210.058,100.721c2.677-0.529,4.785-2.785,5.05-5.504c0.13-1.339,0.134-2.717-1.068-3.664c-1.43-1.127-2.904-2.201-4.37-3.282
	c-0.611-0.451-2.066,0.166-1.891,0.844c0.339,1.315,0.336,2.816,1.514,3.799c0.539,0.45,0.714,0.955,0.337,1.561
	c-0.34,0.548-0.846,0.74-1.445,0.432c-0.616-0.316-0.873-0.831-0.567-1.484c0.2-0.426,0.148-0.789,0.001-1.205
	c-0.258-0.725-0.476-1.465-0.687-2.206c-0.131-0.461-0.251-0.922-0.874-0.813c-0.563,0.098-1.253-0.196-1.522,0.718
	c-0.495,1.679-1.101,3.326-1.676,4.981c-0.157,0.453-0.129,0.891-0.029,1.343C203.492,99.251,206.876,101.349,210.058,100.721z"/>
<path opacity="0.2" fill="#BC1837" d="M237.061,113.968c0.658,0.877,1.311,1.758,1.554,2.86c0.437,1.983,0.098,3.794-1.211,5.382
	c-0.774,0.939-0.779,0.936,0.048,1.83c2.019,2.186,2.245,5.466,0.541,7.847c-1.686,2.357-4.812,3.222-7.515,1.999
	c-0.718-0.325-0.976-0.266-1.337,0.484c-1.382,2.872-4.539,4.147-7.517,3.142c-2.856-0.964-4.635-3.936-4.094-6.927
	c0.104-0.577-0.004-0.677-0.581-0.735c-2.466-0.249-4.283-1.489-5.202-3.824c-0.9-2.289-0.497-4.439,1.081-6.306
	c0.931-1.101,2.17-1.774,3.621-1.973c0.532-0.073,0.748-0.193,0.594-0.84c-0.61-2.563,0.449-5.115,2.617-6.521
	c2.166-1.405,4.921-1.315,7.04,0.248c0.783,0.577,1.369,1.336,1.778,2.21c0.204,0.436,0.381,0.521,0.816,0.272
	c2.503-1.433,4.913-1.333,7.196,0.504c0.128,0.103,0.294,0.159,0.442,0.236C236.976,113.895,237.019,113.932,237.061,113.968z
	 M227.631,134.823c0.401-0.705,1.152-1.532,0.827-2.618c-0.449-1.504-1.022-2.972-1.57-4.444c-0.163-0.438-1.577-0.605-1.637-0.217
	c-0.168,1.087-0.956,2.064-0.577,3.246c0.163,0.508,0.089,0.966-0.453,1.2c-0.461,0.199-0.907,0.136-1.171-0.332
	c-0.266-0.472-0.213-0.961,0.261-1.262c0.498-0.316,0.557-0.817,0.684-1.296c0.115-0.432,0.155-0.886,0.292-1.31
	c0.151-0.467,0.103-0.778-0.364-1.046c-0.437-0.251-0.779-0.484-1.274-0.075c-1.016,0.838-2.057,1.652-3.128,2.418
	c-0.551,0.394-0.806,0.902-0.938,1.525c-0.476,2.242,0.669,4.549,2.786,5.602C223.44,137.245,226.024,136.722,227.631,134.823z
	 M235.769,114.423c-1.146-1.047-2.578-1.411-4.16-1.112c-1.164,0.22-2.282,0.663-2.719,1.873c-0.505,1.398-0.868,2.848-1.263,4.284
	c-0.156,0.567,0.783,1.417,1.255,1.096c0.9-0.613,2.017-1.031,2.416-2.209c0.181-0.535,0.569-0.767,1.116-0.632
	c0.54,0.132,0.794,0.545,0.761,1.069c-0.035,0.578-0.435,0.861-0.985,0.79c-0.474-0.061-0.806,0.105-1.143,0.391
	c-0.385,0.326-0.795,0.625-1.204,0.921c-0.371,0.269-0.744,0.481-0.466,1.075c0.266,0.569,0.472,1.011,1.266,0.926
	c1.199-0.128,2.413-0.164,3.62-0.145c0.872,0.014,1.5-0.331,2.055-0.948C238.342,119.555,238.14,116.437,235.769,114.423z
	 M226.509,111.892c-1.811-1.545-4.006-1.801-5.842-0.861c-1.796,0.919-2.91,2.924-2.728,4.937c0.064,0.708,0.169,1.481,0.744,1.918
	c1.271,0.966,2.623,1.827,3.946,2.724c0.338,0.229,0.627,0.102,0.906-0.151c0.24-0.218,0.682-0.354,0.501-0.768
	c-0.448-1.027-0.444-2.279-1.511-3.008c-0.366-0.25-0.432-0.656-0.214-1.053c0.226-0.411,0.586-0.613,1.057-0.482
	c0.426,0.119,0.756,0.466,0.636,0.868c-0.319,1.067,0.288,1.902,0.574,2.817c0.147,0.469,0.247,0.935,0.991,0.882
	c0.694-0.049,0.976-0.304,1.124-0.95c0.226-0.984,0.454-1.984,0.84-2.911C228.275,114.072,227.454,112.84,226.509,111.892z
	 M214.101,127.574c0.128,0.109,0.243,0.241,0.386,0.324c1.212,0.706,2.522,1.418,3.866,0.622c1.342-0.794,2.526-1.861,3.751-2.843
	c0.421-0.337,0.17-1.714-0.306-1.706c-1.115,0.02-2.295-0.383-3.337,0.374c-0.4,0.291-0.799,0.211-1.141-0.129
	c-0.318-0.316-0.374-0.691-0.148-1.075c0.246-0.417,0.715-0.643,1.074-0.386c0.984,0.707,2.051,0.321,3.083,0.384
	c0.444,0.027,0.726-0.139,0.858-0.614c0.128-0.462,0.109-0.803-0.323-1.09c-1.167-0.776-2.325-1.567-3.478-2.364
	c-0.443-0.306-0.919-0.371-1.441-0.327c-1.982,0.167-3.695,1.529-4.346,3.477C211.967,124.12,212.566,126.265,214.101,127.574z
	 M236.839,131.576c1.415-1.669,1.61-4.137,0.418-5.974c-0.587-0.905-1.273-1.771-2.5-1.765c-1.46,0.007-2.921,0.07-4.38,0.124
	c-0.609,0.022-1.213,1.136-0.764,1.474c0.869,0.655,1.618,1.598,2.847,1.627c0.563,0.013,0.925,0.242,0.991,0.811
	c0.06,0.514-0.161,0.886-0.691,0.993c-0.544,0.11-0.963-0.085-1.097-0.647c-0.088-0.367-0.301-0.569-0.602-0.756
	c-0.524-0.326-1.03-0.681-1.532-1.04c-0.313-0.224-0.618-0.453-0.955-0.073c-0.304,0.343-0.884,0.503-0.596,1.21
	c0.529,1.3,0.97,2.636,1.437,3.961c0.128,0.362,0.364,0.623,0.653,0.857C231.987,133.934,235.157,133.56,236.839,131.576z"/>
<path opacity="0.2" fill="#BC1837" d="M113.346,51.06c-0.393,0.939-0.791,1.876-1.559,2.588c-1.382,1.282-2.991,1.861-4.877,1.559
	c-1.116-0.178-1.115-0.184-1.443,0.898c-0.802,2.643-3.321,4.366-6.027,4.121c-2.679-0.242-4.84-2.338-5.131-5.076
	c-0.077-0.728-0.246-0.906-1.016-0.843c-2.949,0.243-5.452-1.685-6.047-4.541c-0.57-2.739,0.973-5.56,3.621-6.532
	c0.51-0.187,0.54-0.321,0.315-0.811c-0.959-2.091-0.821-4.128,0.617-5.961c1.409-1.796,3.32-2.484,5.556-2.098
	c1.319,0.228,2.44,0.903,3.281,1.972c0.308,0.391,0.505,0.508,0.951,0.081c1.765-1.693,4.305-2.044,6.449-0.969
	c2.142,1.073,3.365,3.322,3.109,5.752c-0.094,0.898-0.426,1.724-0.934,2.462c-0.253,0.369-0.238,0.55,0.166,0.781
	c2.324,1.33,3.375,3.306,2.977,5.997c-0.022,0.151,0.011,0.31,0.019,0.465C113.364,50.958,113.355,51.009,113.346,51.06z
	 M92.22,53.311c0.752-0.011,1.768,0.202,2.485-0.568c0.993-1.066,1.898-2.214,2.82-3.345c0.274-0.337-0.257-1.547-0.596-1.412
	c-0.949,0.376-2.102,0.204-2.869,1.063c-0.33,0.369-0.731,0.525-1.174,0.201c-0.376-0.275-0.535-0.662-0.284-1.093
	c0.253-0.435,0.669-0.622,1.133-0.384c0.487,0.25,0.915,0.062,1.358-0.061c0.4-0.111,0.782-0.292,1.186-0.382
	c0.444-0.098,0.671-0.283,0.667-0.783c-0.004-0.468,0.021-0.851-0.539-1.055c-1.149-0.42-2.289-0.87-3.406-1.368
	c-0.575-0.256-1.101-0.221-1.662-0.034c-2.018,0.673-3.327,2.673-3.175,4.862C88.313,51.094,89.946,52.917,92.22,53.311z
	 M112.375,50.24c0.3-1.409-0.082-2.727-1.064-3.853c-0.723-0.828-1.603-1.515-2.777-1.296c-1.356,0.253-2.688,0.643-4.023,1.002
	c-0.527,0.142-0.766,1.293-0.287,1.52c0.914,0.432,1.773,1.13,2.904,0.896c0.513-0.106,0.881,0.095,1.031,0.597
	c0.148,0.494-0.063,0.891-0.498,1.112c-0.48,0.243-0.894,0.056-1.095-0.417c-0.173-0.408-0.463-0.596-0.85-0.731
	c-0.442-0.155-0.873-0.343-1.303-0.531c-0.39-0.17-0.735-0.369-1.079,0.132c-0.33,0.48-0.588,0.853-0.147,1.449
	c0.666,0.899,1.265,1.855,1.816,2.829c0.398,0.705,0.969,1.045,1.724,1.199C109.476,54.71,111.876,53.084,112.375,50.24z
	 M110.05,41.637c0.386-2.175-0.44-4.053-2.056-5.081c-1.579-1.005-3.708-0.955-5.234,0.136c-0.537,0.384-1.106,0.831-1.186,1.497
	c-0.176,1.472-0.23,2.958-0.327,4.439c-0.025,0.379,0.213,0.55,0.546,0.654c0.287,0.09,0.604,0.379,0.85,0.04
	c0.612-0.841,1.616-1.426,1.698-2.623c0.028-0.411,0.322-0.654,0.743-0.666c0.435-0.013,0.767,0.181,0.883,0.62
	c0.105,0.397-0.018,0.824-0.396,0.917c-1.004,0.246-1.387,1.124-1.985,1.783c-0.306,0.338-0.632,0.637-0.241,1.208
	c0.365,0.532,0.702,0.638,1.289,0.453c0.894-0.282,1.801-0.569,2.725-0.695C109.134,44.076,109.734,42.839,110.05,41.637z
	 M91.666,39.074c-0.027,0.154-0.079,0.308-0.078,0.462c0.004,1.302,0.05,2.685,1.319,3.387c1.266,0.701,2.676,1.148,4.038,1.667
	c0.468,0.178,1.452-0.669,1.222-1.046c-0.54-0.883-0.772-2.017-1.868-2.495c-0.42-0.183-0.544-0.541-0.433-0.974
	c0.103-0.403,0.377-0.624,0.791-0.624c0.45,0.001,0.851,0.27,0.813,0.679c-0.103,1.12,0.707,1.793,1.141,2.649
	c0.187,0.368,0.452,0.516,0.894,0.398c0.429-0.115,0.694-0.29,0.721-0.77c0.073-1.299,0.162-2.597,0.258-3.895
	c0.037-0.499-0.135-0.91-0.415-1.307c-1.065-1.508-2.961-2.239-4.825-1.845C93.428,35.743,91.992,37.23,91.666,39.074z
	 M99.146,59.156c2.001,0.348,4.068-0.655,4.979-2.472c0.448-0.895,0.82-1.851,0.238-2.831c-0.692-1.165-1.428-2.305-2.157-3.448
	c-0.304-0.477-1.479-0.437-1.539,0.081c-0.116,1.004-0.519,2.046,0.036,3.044c0.254,0.457,0.241,0.854-0.183,1.175
	c-0.383,0.289-0.785,0.288-1.12-0.086c-0.343-0.384-0.385-0.81,0.003-1.182c0.253-0.243,0.314-0.509,0.323-0.837
	c0.015-0.573,0.061-1.145,0.113-1.716c0.032-0.355,0.072-0.708-0.39-0.799c-0.417-0.082-0.818-0.471-1.249,0.092
	c-0.792,1.034-1.654,2.015-2.496,3.011c-0.23,0.272-0.328,0.584-0.379,0.925C94.979,56.379,96.768,58.742,99.146,59.156z"/>
<g>
</g>
<g>
</g>
<g>
</g>
<g>
</g>
<g>
</g>
<g>
</g>
</svg>
